<?xml version="1.0" encoding="utf-8"?>
<!-- Generator: Adobe Illustrator 16.0.0, SVG Export Plug-In . SVG Version: 6.00 Build 0)  -->
<!DOCTYPE svg PUBLIC "-//W3C//DTD SVG 1.1//EN" "http://www.w3.org/Graphics/SVG/1.1/DTD/svg11.dtd">
<svg version="1.1" id="Layer_1" xmlns="http://www.w3.org/2000/svg" xmlns:xlink="http://www.w3.org/1999/xlink" x="0px" y="0px"
	 width="300px" height="200px" viewBox="0 0 300 200" enable-background="new 0 0 300 200" xml:space="preserve">
<g id="cityscape">
</g>
<g id="markers">
	<g>
		<g>
			<g>
				<rect x="457.699" y="-360.4" fill="#362B06" width="79.602" height="18.7"/>
			</g>
		</g>
		<path fill="#352B09" d="M536.1-360.4c5.5,0,10,4.2,10,9.4s-4.5,9.4-10,9.4"/>
	</g>
	<g>
		<g>
			<path fill="#6C560B" d="M492.801-362.2c0,27.7-50.102,72.6-50.102,72.6s-50.1-44.9-50.1-72.6c0-27.7,22.4-50.1,50.102-50.1
				S492.801-389.9,492.801-362.2z"/>
		</g>
	</g>
	<g>
		<g>
			<g>
				<rect x="-12.9" y="-355.5" fill="#765D06" width="145" height="23"/>
			</g>
		</g>
		<path fill="#765D06" d="M131.2-355.7c6.6,0,12,5.1,12,11.3c0,6.2-5.4,11.3-12,11.3"/>
	</g>
	<g>
		<g>
			<g>
				<rect x="222.2" y="-481.2" fill="#125B56" width="114.999" height="20.7"/>
			</g>
		</g>
		<path fill="#155C56" d="M336.1-480.9c6,0,10.801,4.6,10.801,10.2c0,5.6-4.898,10.2-10.801,10.2"/>
	</g>
	<g>
		<g>
			<path fill="#009F96" d="M265.3-483.3c0,30.6-55.5,80.4-55.5,80.4s-55.5-49.7-55.5-80.4c0-30.6,24.8-55.5,55.5-55.5
				C240.4-538.8,265.3-513.9,265.3-483.3z"/>
		</g>
	</g>
	<g>
		<g>
			<path fill="#ECB90C" d="M24.4-357.8c0,33.9-61.5,89-61.5,89s-61.5-55.1-61.5-89c0-33.9,27.5-61.5,61.5-61.5
				S24.4-391.8,24.4-357.8z"/>
		</g>
	</g>
	<g>
		<g>
			<text transform="matrix(1 0 0 1 500.748 -347.6719)" fill="#F2F2F2" font-family="'Futura-Medium'" font-size="11.239">Work</text>
		</g>
	</g>
	<g>
		<g>
			<text transform="matrix(1 0 0 1 30.7241 -340.0322)" fill="#F2F2F2" font-family="'Futura-Medium'" font-size="13.7857">Recent Projects</text>
		</g>
	</g>
	<g>
		<g>
			<text transform="matrix(1 0 0 1 274.0859 -467.1641)" fill="#F2F2F2" font-family="'Futura-Medium'" font-size="12.4475">Education</text>
		</g>
	</g>
</g>
<g id="icons">
	<g>
		<rect x="182" y="-497.4" fill="#FFFFFF" width="20.4" height="7.7"/>
		<rect x="181.8" y="-487.7" fill="#FFFFFF" width="57.3" height="25.2"/>
		<rect x="204.2" y="-506.5" fill="#FFFFFF" width="12.3" height="16.8"/>
		<path fill="#FFFFFF" d="M204.4-508.5c0-4.5,2.699-8.2,6-8.2c3.3,0,6,3.7,6,8.2"/>
		<line fill="none" stroke="#009F96" stroke-width="3" x1="192.5" y1="-485.7" x2="192.5" y2="-466"/>
		<line fill="none" stroke="#009F96" stroke-width="3" x1="202.6" y1="-485.7" x2="202.6" y2="-466"/>
		<line fill="none" stroke="#009F96" stroke-width="3" x1="222.7" y1="-485.3" x2="222.7" y2="-465.7"/>
		<line fill="none" stroke="#009F96" stroke-width="3" x1="232.8" y1="-485.3" x2="232.8" y2="-465.7"/>
		<line fill="none" stroke="#009F96" stroke-width="3" x1="212.6" y1="-485.3" x2="212.6" y2="-465.7"/>
		<line fill="none" stroke="#009F96" stroke-width="3" x1="212.6" y1="-505.2" x2="212.6" y2="-490.1"/>
	</g>
	<g>
		<path fill="#FFFFFF" d="M-20.7-337.3c0,0-18.1,7.6-36.3,0v-47.4c15.1,5,36.3,0,36.3,0V-337.3z"/>
		<path fill="none" stroke="#FFFFFF" stroke-width="6" d="M-27.8-370.8c0,0,23.5-10,19.2,7.7c-2,8.2-11.4,12.3-18.7,6.7"/>
		<path fill="none" stroke="#FFFFFF" d="M-57-384.7c0,0,16.1-5.5,36.3,0"/>
	</g>
	<g>
		<path fill="#FFFFFF" d="M432.9-342.5c-1.9,0-3.4-1.4-3.4-3.2v-42.7c0-1.8,1.5-3.2,3.4-3.2h19.5c1.898,0,3.398,1.4,3.398,3.2v42.7
			c0,1.8-1.5,3.2-3.398,3.2H432.9z"/>
		<rect x="430.9" y="-387.7" fill="#6C560B" width="23.6" height="37.1"/>
		<ellipse fill="#6C560B" cx="442.699" cy="-346.4" rx="1.9" ry="1.6"/>
		<circle fill="#FFFFFF" cx="433.6" cy="-384.2" r="1.5"/>
		<circle fill="#FFFFFF" cx="433.6" cy="-380.2" r="1.5"/>
		<line fill="none" stroke="#FFFFFF" x1="436" y1="-383.5" x2="444.801" y2="-383.5"/>
		<line fill="none" stroke="#FFFFFF" x1="436" y1="-379.8" x2="444.801" y2="-379.8"/>
	</g>
	<g>
		<g>
			<g>
				
					<circle opacity="0.7" fill="#919191" stroke="#FFFFFF" stroke-width="4" enable-background="new    " cx="-214.9" cy="-514.8" r="61.1"/>
				<text transform="matrix(1 0 0 1 -259.5596 -537.1113)" fill="#FFFFFF" font-family="'Futura-Medium'" font-size="19.5379">pedro</text>
				<text transform="matrix(1 0 0 1 -259.5596 -513.7119)" fill="#FFFFFF" font-family="'Futura-Medium'" font-size="19.5379">silva</text>
			</g>
		</g>
	</g>
</g>
<g id="currentProjects">
	<rect x="-47" y="-42.5" opacity="0.9" fill="#FFFFFF" enable-background="new    " width="400" height="400"/>
	<rect x="-447" y="-42.5" opacity="0.9" fill="#ECB90C" enable-background="new    " width="400" height="400"/>
	<rect x="353" y="-42.5" opacity="0.9" fill="#765D06" enable-background="new    " width="400" height="400"/>
	<rect x="351" y="357.5" opacity="0.9" fill="#594605" enable-background="new    " width="400" height="400"/>
	<rect x="-448" y="356.5" opacity="0.9" fill="#B18B09" enable-background="new    " width="400" height="400"/>
	<rect x="-48" y="357.5" opacity="0.9" fill="#765D06" enable-background="new    " width="400" height="400"/>
	<g>
		<path fill="#CCCCCC" d="M-149.1,133.2c0,6.1-4.9,11-11,11h-151.1c-6.1,0-11-4.9-11-11V41.5c0-6.1,4.9-11,11-11h151.1
			c6.1,0,11,4.9,11,11V133.2z"/>
		<rect x="-307.9" y="49.2" fill="#E5E5E5" width="144.5" height="76.3"/>
		<path fill="#919191" d="M-341.4,162.5c-3,0-5.5-1.9-5.5-4.1V82.5c0-2.3,2.5-4.1,5.5-4.1h111.2c3,0,5.5,1.9,5.5,4.1v75.9
			c0,2.3-2.5,4.1-5.5,4.1H-341.4z"/>
		<rect x="-333" y="85.5" fill="#FFFFFF" width="100.3" height="69.9"/>
		<circle fill="#FFFFFF" cx="-340" cy="120.4" r="2.8"/>
		<path fill="#BDBDBD" d="M-297.1,88c17.9,0,32.4,14.5,32.4,32.4c0,17.898-14.5,32.398-32.4,32.398"/>
		<rect x="-261.9" y="87.7" fill="#D3D3D3" width="26" height="4.8"/>
		<rect x="-261.9" y="100.8" fill="#D3D3D3" width="26" height="32.101"/>
		<rect x="-261.9" y="94.1" fill="#D3D3D3" width="26" height="4.8"/>
		<path fill="#D3D3D3" d="M-297,152.9c-17.9,0-32.4-14.5-32.4-32.4S-314.9,88-297,88"/>
		<circle fill="#FFFFFF" cx="-297.1" cy="120.4" r="4.7"/>
		<circle fill="#FFFFFF" cx="-284.6" cy="98.5" r="2.8"/>
		<circle fill="#FFFFFF" cx="-284.4" cy="116.4" r="2.8"/>
		<circle fill="#FFFFFF" cx="-304" cy="139.3" r="2.8"/>
		<circle fill="#FFFFFF" cx="-314.2" cy="133" r="2.8"/>
		<circle fill="#FFFFFF" cx="-310.1" cy="113.1" r="2.8"/>
		<circle fill="#FFFFFF" cx="-286.3" cy="132.5" r="2.8"/>
		<circle fill="#FFFFFF" cx="-305" cy="100.1" r="2.8"/>
		<line fill="none" stroke="#FFFFFF" x1="-301.1" y1="118.9" x2="-309.2" y2="113.9"/>
		<line fill="none" stroke="#FFFFFF" x1="-298.5" y1="117" x2="-304.4" y2="101.1"/>
		<line fill="none" stroke="#FFFFFF" x1="-294.6" y1="116.8" x2="-285.2" y2="99.8"/>
		<line fill="none" stroke="#FFFFFF" x1="-293.5" y1="119.5" x2="-286.5" y2="117.2"/>
		<line fill="none" stroke="#FFFFFF" x1="-293.8" y1="123.1" x2="-286.9" y2="131.3"/>
		<line fill="none" stroke="#FFFFFF" x1="-298.1" y1="123.9" x2="-303.2" y2="138.1"/>
		<line fill="none" stroke="#FFFFFF" x1="-300.3" y1="122.5" x2="-314.2" y2="133"/>
	</g>
	<g>
		<rect x="87.2" y="139.7" fill="#BDBDBD" width="42" height="21.7"/>
		<polygon fill="#BDBDBD" points="108.7,140.3 118.9,121.4 129.1,140.3 		"/>
		<line fill="none" stroke="#BDBDBD" stroke-width="3" x1="118.7" y1="122.4" x2="98.3" y2="122.4"/>
		<path fill="#D3D3D3" d="M187,60.2c0,19.6-35.4,52.1-35.4,52.1S116.2,79.8,116.2,60.2c0-19.6,15.9-35.4,35.399-35.4
			C171.1,24.8,187,40.6,187,60.2z"/>
		<circle fill="#BDBDBD" cx="151.6" cy="59.5" r="21.8"/>
		<rect x="131" y="144.5" fill="#BDBDBD" width="42" height="21.7"/>
		<polygon fill="#BDBDBD" points="152.6,146.1 162.8,127.3 173,146.1 		"/>
		<line fill="none" stroke="#BDBDBD" stroke-width="3" x1="162.6" y1="128.2" x2="142.1" y2="128.2"/>
		<rect x="174.9" y="139.7" fill="#BDBDBD" width="42" height="21.7"/>
		<polygon fill="#BDBDBD" points="196.4,140.3 206.7,121.4 216.9,140.3 		"/>
		<line fill="none" stroke="#BDBDBD" stroke-width="3" x1="206.5" y1="123.4" x2="186" y2="123.4"/>
	</g>
	<g>
		<g>
			<rect x="596.199" y="46.3" fill="#CCECEA" width="93.5" height="100.7"/>
			<rect x="602.801" y="79.7" fill="#BFBFBF" width="23.898" height="61.2"/>
			<rect x="602.801" y="66.6" fill="#BFBFBF" width="23.898" height="10.6"/>
			<rect x="630.699" y="95.8" fill="#BFBFBF" width="23.9" height="45.101"/>
			<rect x="658.5" y="95.8" fill="#BFBFBF" width="23.9" height="45.101"/>
			<rect x="630.699" y="66.3" fill="#BFBFAC" width="51.801" height="26.2"/>
			<polyline fill="#009F96" points="679.199,46.3 689.6,46.3 689.6,56.7 			"/>
			<path fill="#BFBFBF" d="M689.6,56.5c0,0-4.699-1.7-10.5,0c1.9-5.8,0-10.5,0-10.5"/>
		</g>
		<g>
			<path fill="#8E8E8E" d="M551.4,127.6c0,4.801-3.9,8.7-8.701,8.7H423.1c-4.799,0-8.699-3.899-8.699-8.7V55
				c0-4.8,3.9-8.7,8.699-8.7h119.6c4.801,0,8.701,3.9,8.701,8.7V127.6z"/>
			<rect x="425.699" y="61.1" fill="#CCECEA" width="114.4" height="60.4"/>
			<path fill="#6D6D6D" d="M495,146.9h-24.199L475,136.3c3.301-2.2,12.5-2.2,15.699,0L495,146.9z"/>
			<rect x="510.199" y="72.4" fill="#867878" width="25" height="42.4"/>
			<rect x="430.1" y="64.9" fill="#867878" width="25" height="49.9"/>
			<rect x="456.801" y="102" fill="#BFBFBF" width="25" height="12.8"/>
			<rect x="483.5" y="102" fill="#BFBFBF" width="25" height="12.8"/>
			<line fill="none" stroke="#8C8C8C" stroke-width="3" x1="459.1" y1="74.8" x2="482.6" y2="74.8"/>
			<line fill="none" stroke="#8C8C8C" stroke-width="3" x1="459.1" y1="80.6" x2="503" y2="80.6"/>
			<line fill="none" stroke="#8C8C8C" stroke-width="3" x1="459.1" y1="87" x2="498.301" y2="87"/>
		</g>
		<text transform="matrix(1 0 0 1 568.8809 98.3164)" font-family="'Futura-Medium'" font-size="14.517">+</text>
	</g>
	<g>
		<g>
			<path fill="#919191" d="M-197.4,656.3h-93.8V516.8c16.6-19.5,79.1-21.5,93.8,0V656.3L-197.4,656.3z"/>
			<rect x="-191.5" y="496.6" fill="#6D6D6D" width="73" height="132.4"/>
			<rect x="-157.8" y="626.8" fill="#919191" width="5.7" height="21.8"/>
			<path fill="#6D6D6D" d="M-142.6,656.4h-24.8l4.3-10.9c3.3-2.3,12.7-2.3,16.1,0L-142.6,656.4z"/>
			<g>
				<rect x="-184" y="508.7" fill="#BDBDBD" width="10.8" height="17.1"/>
				<rect x="-168.3" y="508.7" fill="#BDBDBD" width="10.8" height="17.1"/>
				<rect x="-152.5" y="508.7" fill="#BDBDBD" width="10.8" height="17.1"/>
				<rect x="-136.7" y="508.7" fill="#BDBDBD" width="10.8" height="17.1"/>
			</g>
			<g>
				<rect x="-184" y="534.4" fill="#BDBDBD" width="10.8" height="17.1"/>
				<rect x="-168.3" y="534.4" fill="#BDBDBD" width="10.8" height="17.1"/>
				<rect x="-152.5" y="534.4" fill="#BDBDBD" width="10.8" height="17.1"/>
				<rect x="-136.7" y="534.4" fill="#BDBDBD" width="10.8" height="17.1"/>
			</g>
			<g>
				<rect x="-184" y="560.1" fill="#BDBDBD" width="10.8" height="17.102"/>
				<rect x="-168.3" y="560.1" fill="#BDBDBD" width="10.8" height="17.102"/>
				<rect x="-152.5" y="560.1" fill="#BDBDBD" width="10.8" height="17.102"/>
				<rect x="-136.7" y="560.1" fill="#BDBDBD" width="10.8" height="17.102"/>
			</g>
			<g>
				<rect x="-184" y="585.9" fill="#BDBDBD" width="10.8" height="17.1"/>
				<rect x="-168.3" y="585.9" fill="#BDBDBD" width="10.8" height="17.1"/>
				<rect x="-152.5" y="585.9" fill="#BDBDBD" width="10.8" height="17.1"/>
				<rect x="-136.7" y="585.9" fill="#BDBDBD" width="10.8" height="17.1"/>
			</g>
			<line fill="none" stroke="#FFFFFF" stroke-width="4" x1="-112.5" y1="614" x2="-194.7" y2="614"/>
			<rect x="-272.8" y="534.6" fill="#404040" width="52.5" height="49.602"/>
			<polygon fill="#BFBFBF" points="-220.6,584.2 -272.8,584.2 -266.9,537.6 -226.5,537.6 			"/>
			<rect x="-213.4" y="566.9" width="3.6" height="13.398"/>
		</g>
		<g>
			<path fill="#919191" d="M-377.3,621c-3.4,0-6.2-2.6-6.2-5.8v-77.4c0-3.2,2.8-5.8,6.2-5.8h35.3c3.4,0,6.2,2.6,6.2,5.8v77.4
				c0,3.2-2.8,5.8-6.2,5.8H-377.3z"/>
			<rect x="-381" y="539.2" fill="#D9D9D9" width="42.6" height="67.3"/>
			<ellipse fill="#BFBFBF" cx="-359.6" cy="613.9" rx="3.4" ry="2.9"/>
			<circle fill="#FFFFFF" cx="-376.1" cy="545.5" r="2.7"/>
			<circle fill="#FFFFFF" cx="-376.1" cy="552.8" r="2.7"/>
			<line fill="none" stroke="#FFFFFF" x1="-371.7" y1="546.8" x2="-355.9" y2="546.8"/>
			<line fill="none" stroke="#FFFFFF" x1="-371.7" y1="553.5" x2="-355.9" y2="553.5"/>
		</g>
		<text transform="matrix(1 0 0 1 -318.4995 580.9141)" font-family="'Futura-Medium'" font-size="14.8403">+</text>
	</g>
	<g>
		<path fill="#CCCCCC" d="M161.2,614.5c0,9-6.9,16.3-15.4,16.3H30.6c-8.5,0-15.4-7.3-15.4-16.3v-71.6c0-9-0.1-16.302,8.4-16.302
			h129.2c8.5,0,8.4,7.302,8.4,16.302V614.5z"/>
		<circle opacity="0.33" fill="#CCCCCC" enable-background="new    " cx="237.8" cy="573.2" r="51"/>
		<g>
			<rect x="24.3" y="525.7" fill="#FFFFFF" width="15.6" height="95.1"/>
			<rect x="43" y="525.7" fill="#FFFFFF" width="15.6" height="95.1"/>
			<rect x="61.6" y="525.7" fill="#FFFFFF" width="15.6" height="95.1"/>
			<rect x="80.3" y="525.7" fill="#FFFFFF" width="15.6" height="95.1"/>
			<rect x="98.9" y="525.7" fill="#FFFFFF" width="15.6" height="95.1"/>
			<rect x="117.6" y="525.7" fill="#FFFFFF" width="15.6" height="95.1"/>
			<rect x="136.2" y="525.7" fill="#FFFFFF" width="15.6" height="95.1"/>
			<rect x="124.8" y="525.7" fill="#404040" width="15.6" height="57.5"/>
			<rect x="106.1" y="525.7" fill="#404040" width="15.6" height="57.5"/>
			<rect x="87.5" y="525.7" fill="#404040" width="15.6" height="57.5"/>
			<rect x="50.2" y="525.7" fill="#404040" width="15.6" height="57.5"/>
			<rect x="31.5" y="525.7" fill="#404040" width="15.6" height="57.5"/>
		</g>
		<text transform="matrix(1 0 0 1 169.8418 577.6689)" font-family="'Futura-Medium'" font-size="15.0433">+</text>
		<g>
			<path d="M255.8,536c0.101,0,0.2,0,0.4,0c6.7,0.3,6.2,10.7-0.8,10c-2.5-0.3-4.2-2.1-4.4-4.9c-2.8-0.698-5.7-1.3-8.5-2
				c-1.1,3.2-2.1,6.7-3.2,9.9c6.2,0.3,11.101,1.9,15,4.4c0.7-0.302,1-0.7,1.601-1c4-1.9,8.301,1.198,8.601,4.8c0,0.5,0,1,0,1.5
				c-0.399,2.2-1.5,3.6-3.101,4.6c0.699,8.602-5.801,13-11.801,15.4c3.301,1.898,5.801,5.2,5.801,10.2c0,5.6-3,9.5-7.301,10.8
				c-0.398,0.898-0.699,1.898-1.1,2.8c3.8,0,6.8,1.9,7.2,4.9c0.1,1.1,0,2.3-0.601,2.698c-0.601,0.4-2.601,0.2-3.801,0.2
				c-8.199,0-16.199,0-24.398,0c-1.301,0-3.301,0.2-3.801-0.2c-0.601-0.398-0.699-1.6-0.601-2.6c0.3-3.2,3.5-5,7-5
				c-0.101-0.8-0.8-1.8-0.899-2.8c-4.301-1.2-7.301-5.5-7.301-10.8c0-4.602,2.301-8.302,5.801-10c-3.101-1.4-5.801-2.802-7.899-5
				c-2.101-2.102-4.101-5-4.101-8.9c0-0.5,0.301-1.2,0.101-1.7c-0.101-0.3-0.7-0.5-1-0.898c-0.9-0.9-1.5-2.2-1.8-3.602
				c0-0.5,0-1,0-1.5c0.398-2.2,1.6-3.898,3.6-4.8c2.1-1,4.9-0.5,6.6,0.9c4.102-2.7,9.4-4.2,15.9-4.4c0.9-3,1.9-6.1,2.9-9.2
				c0.3-0.8,0.5-2.6,1.199-2.8s1.801,0.2,2.5,0.4c2.601,0.6,5.101,1.198,7.5,1.698C252.2,537.4,253.5,536.3,255.8,536z M253,540.7
				c-0.4,3.7,4.8,4.398,5.8,1.2c0.7-2.4-1.399-4.102-3.399-3.7C254,538.5,253.1,539.5,253,540.7z M228,552.5c-2.3,0.7-4.2,1.7-6,2.9
				c-3.1,2.1-7.2,5.898-5.8,11.6c1.1,4.5,4.899,7.2,8.7,9.1c4.3,2,9.6,2.9,15,2.7c5.398-0.2,10-1.898,13.6-4.2
				c3.3-2.198,7.1-6,5.9-11.5c-1-4.8-5-7.5-8.602-9.198c-4.1-1.9-9.1-3.102-15.199-2.7C232.7,551.3,230.2,551.8,228,552.5z
				 M214.6,561c0.9-2.8,2.801-4.6,4.801-6.4C215.1,551.7,210.8,558.3,214.6,561z M261.4,555.1c-1.2-1.198-3.7-1.6-5.2-0.398
				c2.1,1.6,3.8,3.7,4.899,6.398C262.9,559.9,262.9,556.7,261.4,555.1z M227.8,579.8c-1.5,9.7,0.4,20.8,4.9,26.4
				c0.6,0.7,1.7,2,2.5,2.2c1.6,0.398,3.5-0.302,5.1,0c6.9-5,8.7-17.102,7.3-28.802c-5.5,1.802-14.199,1.802-19.8,0
				C227.8,579.5,227.8,579.6,227.8,579.8z M222.1,590.1c0.2,3.302,2.102,5.9,4.4,7.2c-1.2-4.398-1.4-10.5-1.1-15.8
				C223.2,583.3,221.8,586.3,222.1,590.1z M249,597.3c2.4-1.2,4.3-3.898,4.5-7.3c0.3-3.9-1.2-6.7-3.3-8.5
				c-0.101,0-0.101-0.1-0.2-0.1C250.5,586.9,250.1,592.8,249,597.3z M230.5,606.6c-0.3-0.5-0.8-1.6-1.3-1.8
				c-0.4-0.2-1-0.2-1.601-0.2c-2.101,0.102-4.399,1.302-4.399,3.7c2.899,0,5.8,0,8.6,0C231.5,607.8,231,607.3,230.5,606.6z
				 M246.1,604.8c-0.5,0.9-1.3,1.9-1.898,2.7c-0.2,0.3-0.602,0.6-0.5,0.8c2.898,0,5.8,0,8.6,0C252.2,605.3,249.2,604.2,246.1,604.8z
				"/>
			<path fill="#FFFFFF" d="M255.4,538.2c2-0.4,4.199,1.3,3.398,3.7c-1,3.198-6.199,2.5-5.8-1.2C253.1,539.5,254,538.5,255.4,538.2z"
				/>
			<path fill="#FFFFFF" d="M235.6,551.1c6.102-0.398,11,0.802,15.2,2.7c3.601,1.7,7.5,4.4,8.601,9.2c1.199,5.5-2.601,9.4-5.899,11.5
				c-3.601,2.4-8.2,4-13.601,4.2c-5.5,0.2-10.801-0.7-15-2.7c-3.899-1.8-7.699-4.6-8.699-9.1c-1.301-5.7,2.699-9.5,5.8-11.602
				c1.8-1.2,3.7-2.2,6-2.898C230.2,551.8,232.7,551.3,235.6,551.1z M226.7,559.9C226.6,560,226,561.1,226,562c0,1.8,1.5,3.4,3,3.6
				c2,0.302,4.4-1.1,4.4-3.698c0-0.7-0.602-2-0.9-2.4c-0.5-0.6-1.8-1.3-3.2-1.2C228.2,558.6,227.2,559.2,226.7,559.9z M242.8,559.9
				c-0.2,0.3-0.7,1.398-0.7,2.1c0,1.9,1.7,3.4,3.102,3.6c2.398,0.4,4.398-1.398,4.398-3.6s-1.898-3.9-4.1-3.6
				C244.3,558.6,243.3,559.2,242.8,559.9z M228.9,571.6c-0.2,1.4,2.3,2.5,3.398,2.802c4.102,1.398,10.2,0.898,13.102-1
				c0.5-0.302,1.5-1,1.398-1.802c-0.1-0.6-0.5-0.8-0.898-0.8c-0.7-0.1-1.4,0.7-1.2,0.602c-1.601,1.3-3.7,1.698-6.8,1.698
				c-3.102,0-5.301-0.5-6.9-1.698c-0.1-0.102-0.5-0.7-1.3-0.5C229.3,571,229,571.3,228.9,571.6z"/>
			<path fill="#FFFFFF" d="M219.4,554.6c-2,1.7-3.801,3.602-4.801,6.4C210.8,558.3,215.1,551.7,219.4,554.6z"/>
			<path fill="#FFFFFF" d="M261,561.2c-1.1-2.7-2.7-4.8-4.9-6.4c1.5-1.3,4-0.898,5.2,0.4C262.9,556.7,262.9,559.9,261,561.2z"/>
			<path fill="#ABA4A4" d="M229.3,558.4c1.4-0.2,2.7,0.6,3.2,1.198c0.4,0.4,0.9,1.7,0.9,2.4c0.1,2.7-2.4,4-4.4,3.7
				c-1.5-0.2-3.1-1.8-3-3.602c0-0.898,0.6-2,0.7-2.1C227.2,559.2,228.2,558.6,229.3,558.4z"/>
			<path fill="#ABA4A4" d="M245.5,558.4c2.3-0.302,4.1,1.398,4.1,3.6c0,2.3-2,4-4.398,3.6c-1.4-0.198-3.102-1.698-3.102-3.6
				c0-0.7,0.5-1.8,0.7-2.1C243.3,559.2,244.3,558.6,245.5,558.4z"/>
			<path d="M229.6,570.9c0.801-0.2,1.2,0.398,1.301,0.5c1.601,1.198,3.801,1.698,6.899,1.698c3.2,0,5.2-0.5,6.8-1.698
				c-0.1,0.1,0.5-0.7,1.2-0.602c0.4,0,0.8,0.2,0.9,0.8c0.1,0.802-0.9,1.5-1.4,1.802c-2.899,2-9,2.398-13.1,1
				c-1.101-0.4-3.601-1.5-3.4-2.802C229,571.3,229.3,571,229.6,570.9z"/>
			<path fill="#FFFFFF" d="M227.9,579.5c5.5,1.8,14.199,1.8,19.8,0c1.399,11.7-0.4,23.8-7.3,28.8c-1.5-0.3-3.5,0.4-5.102,0
				c-0.8-0.2-1.898-1.398-2.5-2.2c-4.6-5.6-6.398-16.698-4.898-26.398C227.8,579.6,227.8,579.5,227.9,579.5z"/>
			<path fill="#FFFFFF" d="M225.4,581.4c-0.301,5.3-0.102,11.398,1.1,15.8c-2.3-1.3-4.2-3.8-4.4-7.2
				C221.8,586.3,223.2,583.3,225.4,581.4z"/>
			<path fill="#FFFFFF" d="M250,581.4c0.1,0,0.1,0.1,0.2,0.1c2.1,1.8,3.5,4.6,3.3,8.5c-0.2,3.4-2.1,6.1-4.5,7.3
				C250.1,592.8,250.5,586.9,250,581.4z"/>
			<path fill="#FFFFFF" d="M231.8,608.3c-2.899,0-5.8,0-8.6,0c0.1-2.398,2.3-3.6,4.399-3.7c0.601,0,1.199,0,1.601,0.2
				c0.5,0.3,1,1.3,1.3,1.8C231,607.3,231.5,607.8,231.8,608.3z"/>
			<path fill="#FFFFFF" d="M252.4,608.3c-2.9,0-5.801,0-8.602,0c-0.1-0.2,0.301-0.5,0.5-0.8c0.602-0.8,1.4-1.8,1.9-2.7
				C249.2,604.2,252.2,605.3,252.4,608.3z"/>
		</g>
	</g>
	<text transform="matrix(1 0 0 1 -419.4097 245.7656)" fill="#FFFFFF" font-family="'Futura-Medium'" font-size="25">Game of Thrones </text>
	<text transform="matrix(1 0 0 1 -419.4097 275.7656)" fill="#FFFFFF" font-family="'Futura-Medium'" font-size="25">Companion</text>
	<text transform="matrix(1 0 0 1 -419.4097 311.7656)" fill="#FFFFFF" font-family="'Futura-Medium'" font-size="18">A character map for a pretty confusing</text>
	<text transform="matrix(1 0 0 1 -419.4097 333.3652)" fill="#FFFFFF" font-family="'Futura-Medium'" font-size="18">show. </text>
	<text transform="matrix(1 0 0 1 -3.334 255.7656)" fill="#FFFFFF" font-family="'Futura-Medium'" font-size="25">Ocoee Mobile </text>
	<text transform="matrix(1 0 0 1 -3.334 285.7656)" fill="#FFFFFF" font-family="'Futura-Medium'" font-size="25">Showcase</text>
	<text transform="matrix(1 0 0 1 -3.334 328.9658)" fill="#FFFFFF" font-family="'Futura-Medium'" font-size="18">A character map for a pretty confusing</text>
	<text transform="matrix(1 0 0 1 -3.334 350.5654)" fill="#FFFFFF" font-family="'Futura-Medium'" font-size="18">show. </text>
</g>
<g id="window">
	<g>
		<g>
			<rect x="-448" y="-48.2" fill="#ECB90C" width="1200" height="5.5"/>
		</g>
	</g>
</g>
</svg>
