<?xml version="1.0" encoding="utf-8"?>
<!-- Generator: Adobe Illustrator 16.0.0, SVG Export Plug-In . SVG Version: 6.00 Build 0)  -->
<!DOCTYPE svg PUBLIC "-//W3C//DTD SVG 1.1//EN" "http://www.w3.org/Graphics/SVG/1.1/DTD/svg11.dtd">
<svg version="1.1" id="Layer_1" xmlns="http://www.w3.org/2000/svg" xmlns:xlink="http://www.w3.org/1999/xlink" x="0px" y="0px"
	 width="300px" height="200px" viewBox="0 0 300 200" enable-background="new 0 0 300 200" xml:space="preserve">
<g id="cityscape">
	
		<image overflow="visible" enable-background="new    " width="1233" height="557" xlink:href="C3F8C9B5E22E0670.png"  transform="matrix(0.9732 0 0 0.9732 -55.001 -589.834)">
	</image>
</g>
<g id="markers">
	<g>
		<g>
			
				<image overflow="visible" opacity="0.75" enable-background="new    " width="111" height="50" xlink:href="C3F8C9B5E22E0671.png"  transform="matrix(1 0 0 1 835 -374.834)">
			</image>
			<g>
				<rect x="850.6" y="-359.4" fill="#362B06" width="79.601" height="18.7"/>
			</g>
		</g>
		<path fill="#352B09" d="M929-359.4c5.5,0,10,4.2,10,9.4s-4.5,9.4-10,9.4"/>
	</g>
	<g>
		
			<image overflow="visible" opacity="0.75" enable-background="new    " width="131" height="154" xlink:href="C3F8C9B5E22E0677.png"  transform="matrix(1 0 0 1 770 -426.834)">
		</image>
		<g>
			<path fill="#6C560B" d="M885.8-361.2c0,27.7-50.1,72.6-50.1,72.6S785.6-333.5,785.6-361.2c0-27.7,22.4-50.1,50.101-50.1
				C863.3-411.3,885.8-388.9,885.8-361.2z"/>
		</g>
	</g>
	<g>
		<g>
			
				<image overflow="visible" opacity="0.75" enable-background="new    " width="176" height="54" xlink:href="C3F8C9B5E22E0672.png"  transform="matrix(1 0 0 1 365 -369.834)">
			</image>
			<g>
				<rect x="380.1" y="-354.5" fill="#765D06" width="145" height="23"/>
			</g>
		</g>
		<path fill="#765D06" d="M524.2-354.7c6.6,0,12,5.1,12,11.3c0,6.2-5.4,11.3-12,11.3"/>
	</g>
	<g>
		<g>
			
				<image overflow="visible" opacity="0.75" enable-background="new    " width="146" height="52" xlink:href="C3F8C9B5E22E0673.png"  transform="matrix(1 0 0 1 600 -495.834)">
			</image>
			<g>
				<rect x="615.2" y="-480.2" fill="#125B56" width="115" height="20.7"/>
			</g>
		</g>
		<path fill="#155C56" d="M729.1-479.9c6,0,10.801,4.6,10.801,10.2c0,5.6-4.9,10.2-10.801,10.2"/>
	</g>
	<g>
		
			<image overflow="visible" opacity="0.75" enable-background="new    " width="142" height="166" xlink:href="C3F8C9B5E22E067E.png"  transform="matrix(1 0 0 1 532 -552.834)">
		</image>
		<g>
			<path fill="#009F96" d="M658.2-482.3c0,30.6-55.5,80.4-55.5,80.4s-55.5-49.7-55.5-80.4c0-30.6,24.8-55.5,55.5-55.5
				S658.2-512.9,658.2-482.3z"/>
		</g>
	</g>
	<g>
		
			<image overflow="visible" opacity="0.75" enable-background="new    " width="154" height="182" xlink:href="C3F8C9B5E22E067F.png"  transform="matrix(1 0 0 1 279 -433.834)">
		</image>
		<g>
			<path fill="#ECB90C" d="M417.4-356.8c0,33.9-61.5,89-61.5,89s-61.5-55.1-61.5-89c0-33.9,27.5-61.5,61.5-61.5
				S417.4-390.8,417.4-356.8z"/>
		</g>
	</g>
	<g>
		
			<image overflow="visible" opacity="0.75" enable-background="new    " width="60" height="44" xlink:href="C3F8C9B5E22E0674.png"  transform="matrix(1 0 0 1 878 -371.834)">
		</image>
		<g>
			<text transform="matrix(1 0 0 1 893.7285 -346.6719)" fill="#F2F2F2" font-family="'Futura-Medium'" font-size="11.239">Work</text>
		</g>
	</g>
	<g>
		
			<image overflow="visible" opacity="0.75" enable-background="new    " width="125" height="47" xlink:href="C3F8C9B5E22E0675.png"  transform="matrix(1 0 0 1 408 -366.834)">
		</image>
		<g>
			<text transform="matrix(1 0 0 1 423.7051 -339.0322)" fill="#F2F2F2" font-family="'Futura-Medium'" font-size="13.7857">Recent Projects</text>
		</g>
	</g>
	<g>
		
			<image overflow="visible" opacity="0.75" enable-background="new    " width="86" height="46" xlink:href="52F52749B0A6EE8F.png"  transform="matrix(1 0 0 1 652 -492.834)">
		</image>
		<g>
			<text transform="matrix(1 0 0 1 667.0664 -466.1641)" fill="#F2F2F2" font-family="'Futura-Medium'" font-size="12.4475">Education</text>
		</g>
	</g>
</g>
<g id="icons">
	<g>
		<rect x="575" y="-496.4" fill="#FFFFFF" width="20.4" height="7.7"/>
		<rect x="574.7" y="-486.7" fill="#FFFFFF" width="57.3" height="25.2"/>
		<rect x="597.2" y="-505.5" fill="#FFFFFF" width="12.3" height="16.8"/>
		<path fill="#FFFFFF" d="M597.3-507.5c0-4.5,2.7-8.2,6-8.2s6,3.7,6,8.2"/>
		<line fill="none" stroke="#009F96" stroke-width="3" x1="585.5" y1="-484.7" x2="585.5" y2="-465"/>
		<line fill="none" stroke="#009F96" stroke-width="3" x1="595.6" y1="-484.7" x2="595.6" y2="-465"/>
		<line fill="none" stroke="#009F96" stroke-width="3" x1="615.7" y1="-484.3" x2="615.7" y2="-464.7"/>
		<line fill="none" stroke="#009F96" stroke-width="3" x1="625.7" y1="-484.3" x2="625.7" y2="-464.7"/>
		<line fill="none" stroke="#009F96" stroke-width="3" x1="605.6" y1="-484.3" x2="605.6" y2="-464.7"/>
		<line fill="none" stroke="#009F96" stroke-width="3" x1="605.6" y1="-504.2" x2="605.6" y2="-489.1"/>
	</g>
	<g>
		<path fill="#FFFFFF" d="M372.3-336.3c0,0-18.1,7.6-36.3,0v-47.4c15.1,5,36.3,0,36.3,0V-336.3z"/>
		<path fill="none" stroke="#FFFFFF" stroke-width="6" d="M365.2-369.8c0,0,23.5-10,19.2,7.7c-2,8.2-11.4,12.3-18.7,6.7"/>
		<path fill="none" stroke="#FFFFFF" d="M336-383.7c0,0,16.1-5.5,36.3,0"/>
	</g>
	<g>
		<path fill="#FFFFFF" d="M825.9-341.5c-1.9,0-3.4-1.4-3.4-3.2v-42.7c0-1.8,1.5-3.2,3.4-3.2h19.5c1.899,0,3.399,1.4,3.399,3.2v42.7
			c0,1.8-1.5,3.2-3.399,3.2H825.9z"/>
		<rect x="823.9" y="-386.7" fill="#6C560B" width="23.6" height="37.1"/>
		<ellipse fill="#6C560B" cx="835.7" cy="-345.4" rx="1.899" ry="1.6"/>
		<circle fill="#FFFFFF" cx="826.6" cy="-383.2" r="1.5"/>
		<circle fill="#FFFFFF" cx="826.6" cy="-379.2" r="1.5"/>
		<line fill="none" stroke="#FFFFFF" x1="829" y1="-382.5" x2="837.7" y2="-382.5"/>
		<line fill="none" stroke="#FFFFFF" x1="829" y1="-378.8" x2="837.7" y2="-378.8"/>
	</g>
	<g>
		
			<image overflow="visible" opacity="0.75" enable-background="new    " width="157" height="157" xlink:href="52F52749B0A6EE8D.png"  transform="matrix(1 0 0 1 107 -584.834)">
		</image>
		<g>
			<g>
				
					<circle opacity="0.7" fill="#919191" stroke="#FFFFFF" stroke-width="4" enable-background="new    " cx="178.1" cy="-513.8" r="61.1"/>
				<text transform="matrix(1 0 0 1 133.4209 -536.1113)" fill="#FFFFFF" font-family="'Futura-Medium'" font-size="19.5379">pedro</text>
				<text transform="matrix(1 0 0 1 133.4209 -512.7119)" fill="#FFFFFF" font-family="'Futura-Medium'" font-size="19.5379">silva</text>
			</g>
		</g>
	</g>
</g>
<g id="currentProjects">
	<rect x="346" y="-41.5" opacity="0.9" fill="#B18B09" enable-background="new    " width="400" height="400"/>
	<rect x="-54" y="-41.5" opacity="0.9" fill="#FFFFFF" enable-background="new    " width="400" height="400"/>
	<rect x="746" y="-41.5" opacity="0.9" fill="#765D06" enable-background="new    " width="400" height="400"/>
	<rect x="744" y="358.5" opacity="0.9" fill="#594605" enable-background="new    " width="400" height="400"/>
	<rect x="-55" y="357.5" opacity="0.9" fill="#B18B09" enable-background="new    " width="400" height="400"/>
	<rect x="345" y="358.5" opacity="0.9" fill="#765D06" enable-background="new    " width="400" height="400"/>
	<g>
		<path fill="#CCCCCC" d="M243.9,134.2c0,6.1-4.9,11-11,11H81.8c-6.1,0-11-4.9-11-11V42.5c0-6.1,4.9-11,11-11H232.9
			c6.1,0,11,4.9,11,11V134.2L243.9,134.2z"/>
		<rect x="85.1" y="50.2" fill="#E5E5E5" width="144.5" height="76.3"/>
		<path fill="#919191" d="M51.6,163.5c-3,0-5.5-1.9-5.5-4.1V83.5c0-2.3,2.5-4.1,5.5-4.1h111.2c3,0,5.5,1.9,5.5,4.1v75.9
			c0,2.3-2.5,4.1-5.5,4.1H51.6z"/>
		<rect x="59.9" y="86.5" fill="#FFFFFF" width="100.3" height="69.9"/>
		<circle fill="#FFFFFF" cx="53" cy="121.4" r="2.8"/>
		<path fill="#BDBDBD" d="M95.8,89c17.9,0,32.4,14.5,32.4,32.4c0,17.899-14.5,32.399-32.4,32.399"/>
		<rect x="131.1" y="88.7" fill="#D3D3D3" width="26" height="4.8"/>
		<rect x="131.1" y="101.8" fill="#D3D3D3" width="26" height="32.101"/>
		<rect x="131.1" y="95.1" fill="#D3D3D3" width="26" height="4.8"/>
		<path fill="#D3D3D3" d="M96,153.9c-17.9,0-32.4-14.5-32.4-32.4S78.1,89,96,89"/>
		<circle fill="#FFFFFF" cx="95.8" cy="121.4" r="4.7"/>
		<circle fill="#FFFFFF" cx="108.4" cy="99.5" r="2.8"/>
		<circle fill="#FFFFFF" cx="108.5" cy="117.4" r="2.8"/>
		<circle fill="#FFFFFF" cx="89" cy="140.3" r="2.8"/>
		<circle fill="#FFFFFF" cx="78.8" cy="134" r="2.8"/>
		<circle fill="#FFFFFF" cx="82.8" cy="114.1" r="2.8"/>
		<circle fill="#FFFFFF" cx="106.7" cy="133.5" r="2.8"/>
		<circle fill="#FFFFFF" cx="88" cy="101.1" r="2.8"/>
		<line fill="none" stroke="#FFFFFF" x1="91.9" y1="119.9" x2="83.8" y2="114.9"/>
		<line fill="none" stroke="#FFFFFF" x1="94.4" y1="118" x2="88.6" y2="102.1"/>
		<line fill="none" stroke="#FFFFFF" x1="98.4" y1="117.8" x2="107.8" y2="100.8"/>
		<line fill="none" stroke="#FFFFFF" x1="99.5" y1="120.5" x2="106.5" y2="118.2"/>
		<line fill="none" stroke="#FFFFFF" x1="99.1" y1="124.1" x2="106" y2="132.3"/>
		<line fill="none" stroke="#FFFFFF" x1="94.9" y1="124.9" x2="89.7" y2="139.1"/>
		<line fill="none" stroke="#FFFFFF" x1="92.7" y1="123.5" x2="78.8" y2="134"/>
	</g>
	<g>
		<rect x="480.1" y="140.7" fill="#BDBDBD" width="42" height="21.7"/>
		<polygon fill="#BDBDBD" points="501.7,139.3 511.9,120.4 522.1,139.3 		"/>
		<line fill="none" stroke="#BDBDBD" stroke-width="3" x1="511.7" y1="121.4" x2="491.2" y2="121.4"/>
		<path fill="#D3D3D3" d="M580,61.2c0,19.6-35.4,52.1-35.4,52.1S509.2,80.8,509.2,61.2c0-19.6,15.899-35.4,35.399-35.4
			S580,41.6,580,61.2z"/>
		<circle fill="#BDBDBD" cx="544.6" cy="60.5" r="21.8"/>
		<rect x="524" y="145.5" fill="#BDBDBD" width="42" height="21.7"/>
		<polygon fill="#BDBDBD" points="545.5,144.1 555.8,125.3 566,144.1 		"/>
		<line fill="none" stroke="#BDBDBD" stroke-width="3" x1="555.6" y1="126.2" x2="535.1" y2="126.2"/>
		<rect x="567.9" y="140.7" fill="#BDBDBD" width="42" height="21.7"/>
		<polygon fill="#BDBDBD" points="589.4,139.3 599.6,120.4 609.9,139.3 		"/>
		<line fill="none" stroke="#BDBDBD" stroke-width="3" x1="599.5" y1="121.4" x2="579" y2="121.4"/>
	</g>
	<g>
		<g>
			<rect x="989.1" y="47.3" fill="#CCECEA" width="93.5" height="100.7"/>
			<rect x="995.8" y="80.7" fill="#BFBFBF" width="23.9" height="61.2"/>
			<rect x="995.8" y="67.6" fill="#BFBFBF" width="23.9" height="10.6"/>
			<rect x="1023.6" y="96.8" fill="#BFBFBF" width="23.9" height="45.101"/>
			<rect x="1051.5" y="96.8" fill="#BFBFBF" width="23.9" height="45.101"/>
			<rect x="1023.6" y="67.3" fill="#BFBFAC" width="51.801" height="26.2"/>
			<polyline fill="#009F96" points="1072.1,47.3 1082.6,47.3 1082.6,57.7 			"/>
			<path fill="#BFBFBF" d="M1082.6,57.5c0,0-4.699-1.7-10.5,0c1.9-5.8,0-10.5,0-10.5"/>
		</g>
		<g>
			<path fill="#8E8E8E" d="M944.4,128.6c0,4.801-3.9,8.7-8.7,8.7H816.1c-4.8,0-8.699-3.899-8.699-8.7V56c0-4.8,3.899-8.7,8.699-8.7
				H935.7c4.8,0,8.7,3.9,8.7,8.7V128.6L944.4,128.6z"/>
			<rect x="818.7" y="62.1" fill="#CCECEA" width="114.399" height="60.4"/>
			<path fill="#6D6D6D" d="M888,147.9h-24.2L868,137.3c3.3-2.2,12.5-2.2,15.7,0L888,147.9z"/>
			<rect x="903.2" y="73.4" fill="#867878" width="25" height="42.4"/>
			<rect x="823.1" y="65.9" fill="#867878" width="25" height="49.9"/>
			<rect x="849.8" y="103" fill="#BFBFBF" width="25" height="12.8"/>
			<rect x="876.5" y="103" fill="#BFBFBF" width="25" height="12.8"/>
			<line fill="none" stroke="#8C8C8C" stroke-width="3" x1="852.1" y1="75.8" x2="875.6" y2="75.8"/>
			<line fill="none" stroke="#8C8C8C" stroke-width="3" x1="852.1" y1="81.6" x2="895.9" y2="81.6"/>
			<line fill="none" stroke="#8C8C8C" stroke-width="3" x1="852.1" y1="88" x2="891.3" y2="88"/>
		</g>
		<text transform="matrix(1 0 0 1 961.8613 99.3164)" font-family="'Futura-Medium'" font-size="14.517">+</text>
	</g>
	<g>
		<g>
			<path fill="#919191" d="M195.6,657.3h-93.8V517.8c16.6-19.5,79.101-21.5,93.8,0V657.3z"/>
			<rect x="201.5" y="497.6" fill="#6D6D6D" width="73" height="132.4"/>
			<rect x="235.2" y="627.8" fill="#919191" width="5.7" height="21.8"/>
			<path fill="#6D6D6D" d="M250.4,657.4H225.6l4.301-10.9c3.3-2.3,12.699-2.3,16.1,0L250.4,657.4z"/>
			<g>
				<rect x="208.9" y="509.7" fill="#BDBDBD" width="10.8" height="17.1"/>
				<rect x="224.7" y="509.7" fill="#BDBDBD" width="10.8" height="17.1"/>
				<rect x="240.5" y="509.7" fill="#BDBDBD" width="10.8" height="17.1"/>
				<rect x="256.3" y="509.7" fill="#BDBDBD" width="10.8" height="17.1"/>
			</g>
			<g>
				<rect x="208.9" y="535.4" fill="#BDBDBD" width="10.8" height="17.1"/>
				<rect x="224.7" y="535.4" fill="#BDBDBD" width="10.8" height="17.1"/>
				<rect x="240.5" y="535.4" fill="#BDBDBD" width="10.8" height="17.1"/>
				<rect x="256.3" y="535.4" fill="#BDBDBD" width="10.8" height="17.1"/>
			</g>
			<g>
				<rect x="208.9" y="561.1" fill="#BDBDBD" width="10.8" height="17.101"/>
				<rect x="224.7" y="561.1" fill="#BDBDBD" width="10.8" height="17.101"/>
				<rect x="240.5" y="561.1" fill="#BDBDBD" width="10.8" height="17.101"/>
				<rect x="256.3" y="561.1" fill="#BDBDBD" width="10.8" height="17.101"/>
			</g>
			<g>
				<rect x="208.9" y="586.9" fill="#BDBDBD" width="10.8" height="17.1"/>
				<rect x="224.7" y="586.9" fill="#BDBDBD" width="10.8" height="17.1"/>
				<rect x="240.5" y="586.9" fill="#BDBDBD" width="10.8" height="17.1"/>
				<rect x="256.3" y="586.9" fill="#BDBDBD" width="10.8" height="17.1"/>
			</g>
			<line fill="none" stroke="#FFFFFF" stroke-width="4" x1="280.5" y1="615" x2="198.2" y2="615"/>
			<rect x="120.2" y="535.6" fill="#404040" width="52.5" height="49.601"/>
			<polygon fill="#BFBFBF" points="172.4,585.2 120.2,585.2 126.1,538.6 166.5,538.6 			"/>
			<rect x="179.5" y="567.9" width="3.6" height="13.399"/>
		</g>
		<g>
			<path fill="#919191" d="M15.7,622c-3.4,0-6.2-2.6-6.2-5.8v-77.4c0-3.2,2.8-5.8,6.2-5.8H51c3.4,0,6.2,2.6,6.2,5.8v77.4
				c0,3.2-2.8,5.8-6.2,5.8H15.7z"/>
			<rect x="12" y="540.2" fill="#D9D9D9" width="42.6" height="67.3"/>
			<ellipse fill="#BFBFBF" cx="33.3" cy="614.9" rx="3.4" ry="2.9"/>
			<circle fill="#FFFFFF" cx="16.9" cy="546.5" r="2.7"/>
			<circle fill="#FFFFFF" cx="16.9" cy="553.8" r="2.7"/>
			<line fill="none" stroke="#FFFFFF" x1="21.3" y1="547.8" x2="37.1" y2="547.8"/>
			<line fill="none" stroke="#FFFFFF" x1="21.3" y1="554.5" x2="37.1" y2="554.5"/>
		</g>
		<text transform="matrix(1 0 0 1 74.48 581.9141)" font-family="'Futura-Medium'" font-size="14.8403">+</text>
	</g>
	<g>
		<path fill="#CCCCCC" d="M554.2,615.5c0,9-6.9,16.3-15.4,16.3H423.6c-8.5,0-15.399-7.3-15.399-16.3v-71.6
			c0-9-0.101-16.301,8.399-16.301h129.2c8.5,0,8.4,7.301,8.4,16.301V615.5z"/>
		<circle opacity="0.33" fill="#CCCCCC" enable-background="new    " cx="630.8" cy="574.2" r="51"/>
		<g>
			<rect x="417.3" y="526.7" fill="#FFFFFF" width="15.601" height="95.1"/>
			<rect x="435.9" y="526.7" fill="#FFFFFF" width="15.6" height="95.1"/>
			<rect x="454.6" y="526.7" fill="#FFFFFF" width="15.601" height="95.1"/>
			<rect x="473.3" y="526.7" fill="#FFFFFF" width="15.601" height="95.1"/>
			<rect x="491.9" y="526.7" fill="#FFFFFF" width="15.6" height="95.1"/>
			<rect x="510.6" y="526.7" fill="#FFFFFF" width="15.601" height="95.1"/>
			<rect x="529.2" y="526.7" fill="#FFFFFF" width="15.6" height="95.1"/>
			<rect x="517.8" y="526.7" fill="#404040" width="15.601" height="57.5"/>
			<rect x="499.1" y="526.7" fill="#404040" width="15.601" height="57.5"/>
			<rect x="480.5" y="526.7" fill="#404040" width="15.6" height="57.5"/>
			<rect x="443.2" y="526.7" fill="#404040" width="15.6" height="57.5"/>
			<rect x="424.5" y="526.7" fill="#404040" width="15.6" height="57.5"/>
		</g>
		<text transform="matrix(1 0 0 1 562.8223 578.6689)" font-family="'Futura-Medium'" font-size="15.0433">+</text>
		<g>
			<path d="M648.8,537c0.101,0,0.2,0,0.4,0c6.7,0.3,6.2,10.7-0.8,10c-2.5-0.3-4.2-2.1-4.4-4.9c-2.8-0.699-5.7-1.3-8.5-2
				c-1.1,3.2-2.1,6.7-3.2,9.9c6.2,0.3,11.101,1.9,15,4.4c0.7-0.301,1-0.7,1.601-1c4-1.9,8.3,1.199,8.6,4.8c0,0.5,0,1,0,1.5
				c-0.4,2.2-1.5,3.6-3.1,4.6c0.699,8.601-5.801,13-11.801,15.4c3.301,1.899,5.801,5.2,5.801,10.2c0,5.6-3,9.5-7.301,10.8
				c-0.399,0.899-0.699,1.899-1.1,2.8c3.8,0,6.8,1.9,7.2,4.9c0.1,1.1,0,2.3-0.601,2.699c-0.6,0.4-2.6,0.2-3.8,0.2
				c-8.2,0-16.2,0-24.399,0c-1.301,0-3.301,0.2-3.801-0.2c-0.6-0.399-0.699-1.6-0.6-2.6c0.3-3.2,3.5-5,7-5c-0.1-0.8-0.8-1.8-0.9-2.8
				c-4.3-1.2-7.3-5.5-7.3-10.8c0-4.601,2.3-8.301,5.8-10c-3.1-1.4-5.8-2.801-7.899-5c-2.101-2.101-4.101-5-4.101-8.9
				c0-0.5,0.301-1.2,0.101-1.7c-0.101-0.3-0.7-0.5-1-0.899c-0.9-0.9-1.5-2.2-1.8-3.601c0-0.5,0-1,0-1.5c0.399-2.2,1.6-3.899,3.6-4.8
				c2.1-1,4.9-0.5,6.6,0.9c4.101-2.7,9.4-4.2,15.9-4.4c0.9-3,1.9-6.1,2.9-9.2c0.3-0.8,0.5-2.6,1.199-2.8c0.7-0.2,1.801,0.2,2.5,0.4
				c2.601,0.6,5.101,1.199,7.5,1.699C645.1,538.4,646.5,537.3,648.8,537z M646,541.7c-0.4,3.7,4.8,4.399,5.8,1.2
				c0.7-2.4-1.399-4.101-3.399-3.7C647,539.5,646.1,540.5,646,541.7z M620.9,553.5c-2.301,0.7-4.2,1.7-6,2.9
				c-3.101,2.1-7.2,5.899-5.801,11.6c1.101,4.5,4.9,7.2,8.7,9.1c4.3,2,9.601,2.9,15,2.7c5.4-0.2,10-1.899,13.601-4.2
				c3.3-2.199,7.1-6,5.899-11.5c-1-4.8-5-7.5-8.6-9.199c-4.101-1.9-9.101-3.101-15.2-2.7C625.7,552.3,623.2,552.8,620.9,553.5z
				 M607.6,562c0.9-2.8,2.801-4.6,4.801-6.4C608.1,552.7,603.8,559.3,607.6,562z M654.4,556.1c-1.2-1.199-3.7-1.6-5.2-0.399
				c2.1,1.6,3.8,3.7,4.899,6.399C655.8,560.9,655.9,557.7,654.4,556.1z M620.8,580.8c-1.5,9.7,0.4,20.8,4.9,26.4
				c0.6,0.7,1.7,2,2.5,2.2c1.6,0.399,3.5-0.301,5.1,0c6.9-5,8.7-17.101,7.3-28.801c-5.5,1.801-14.199,1.801-19.8,0
				C620.8,580.5,620.8,580.6,620.8,580.8z M615.1,591.1c0.2,3.301,2.101,5.9,4.4,7.2c-1.2-4.399-1.4-10.5-1.1-15.8
				C616.2,584.3,614.8,587.3,615.1,591.1z M641.9,598.3c2.399-1.2,4.3-3.899,4.5-7.3c0.3-3.9-1.2-6.7-3.301-8.5
				c-0.1,0-0.1-0.1-0.199-0.1C643.5,587.9,643.1,593.8,641.9,598.3z M623.5,607.6c-0.3-0.5-0.8-1.6-1.3-1.8
				c-0.4-0.2-1-0.2-1.601-0.2c-2.1,0.101-4.399,1.301-4.399,3.7c2.899,0,5.8,0,8.6,0C624.5,608.8,624,608.3,623.5,607.6z
				 M639.1,605.8c-0.5,0.9-1.3,1.9-1.899,2.7c-0.2,0.3-0.601,0.6-0.5,0.8c2.899,0,5.8,0,8.6,0C645.1,606.3,642.2,605.2,639.1,605.8z
				"/>
			<path fill="#FFFFFF" d="M648.4,539.2c2-0.4,4.199,1.3,3.399,3.7c-1,3.199-6.2,2.5-5.8-1.2C646.1,540.5,647,539.5,648.4,539.2z"/>
			<path fill="#FFFFFF" d="M628.6,552.1c6.101-0.399,11,0.801,15.2,2.7c3.601,1.7,7.5,4.4,8.601,9.2c1.199,5.5-2.601,9.4-5.9,11.5
				c-3.6,2.4-8.2,4-13.6,4.2c-5.5,0.2-10.801-0.7-15-2.7c-3.9-1.8-7.7-4.6-8.7-9.1c-1.3-5.7,2.7-9.5,5.8-11.601
				c1.8-1.2,3.7-2.2,6-2.899C623.2,552.8,625.7,552.3,628.6,552.1z M619.7,560.9C619.6,561,619,562.1,619,563c0,1.8,1.5,3.4,3,3.6
				c2,0.301,4.4-1.1,4.4-3.699c0-0.7-0.601-2-0.9-2.4c-0.5-0.6-1.8-1.3-3.2-1.2C621.1,559.6,620.2,560.2,619.7,560.9z M635.8,560.9
				c-0.2,0.3-0.7,1.399-0.7,2.1c0,1.9,1.7,3.4,3.101,3.6c2.399,0.4,4.399-1.399,4.399-3.6s-1.899-3.9-4.1-3.6
				C637.2,559.6,636.3,560.2,635.8,560.9z M621.9,572.6c-0.2,1.4,2.3,2.5,3.399,2.801c4.101,1.399,10.2,0.899,13.101-1
				c0.5-0.301,1.5-1,1.399-1.801c-0.1-0.6-0.5-0.8-0.899-0.8c-0.7-0.1-1.4,0.7-1.2,0.601c-1.601,1.3-3.7,1.699-6.8,1.699
				c-3.101,0-5.301-0.5-6.9-1.699c-0.1-0.101-0.5-0.7-1.3-0.5C622.3,572,621.9,572.3,621.9,572.6z"/>
			<path fill="#FFFFFF" d="M612.4,555.6c-2,1.7-3.801,3.601-4.801,6.4C603.8,559.3,608.1,552.7,612.4,555.6z"/>
			<path fill="#FFFFFF" d="M654,562.2c-1.1-2.7-2.7-4.8-4.9-6.4c1.5-1.3,4-0.899,5.2,0.4C655.9,557.7,655.8,560.9,654,562.2z"/>
			<path fill="#ABA4A4" d="M622.3,559.4c1.4-0.2,2.7,0.6,3.2,1.199c0.4,0.4,0.9,1.7,0.9,2.4c0.1,2.7-2.4,4-4.4,3.7
				c-1.5-0.2-3.1-1.8-3-3.601c0-0.899,0.6-2,0.7-2.1C620.2,560.2,621.1,559.6,622.3,559.4z"/>
			<path fill="#ABA4A4" d="M638.4,559.4c2.3-0.301,4.1,1.399,4.1,3.6c0,2.3-2,4-4.4,3.6C636.7,566.4,635,564.9,635,563
				c0-0.7,0.5-1.8,0.7-2.1C636.3,560.2,637.2,559.6,638.4,559.4z"/>
			<path d="M622.6,571.9c0.801-0.2,1.2,0.399,1.301,0.5c1.6,1.199,3.8,1.699,6.899,1.699c3.2,0,5.2-0.5,6.8-1.699
				c-0.1,0.1,0.5-0.7,1.2-0.601c0.4,0,0.8,0.2,0.9,0.8c0.1,0.801-0.9,1.5-1.4,1.801c-2.899,2-9,2.399-13.1,1
				c-1.101-0.4-3.601-1.5-3.4-2.801C621.9,572.3,622.3,572,622.6,571.9z"/>
			<path fill="#FFFFFF" d="M620.9,580.5c5.5,1.8,14.199,1.8,19.8,0c1.399,11.7-0.4,23.8-7.3,28.8c-1.5-0.3-3.5,0.4-5.101,0
				c-0.8-0.2-1.899-1.399-2.5-2.2c-4.6-5.6-6.399-16.699-4.899-26.399C620.8,580.6,620.8,580.5,620.9,580.5z"/>
			<path fill="#FFFFFF" d="M618.4,582.4c-0.301,5.3-0.101,11.399,1.1,15.8c-2.3-1.3-4.2-3.8-4.4-7.2
				C614.8,587.3,616.2,584.3,618.4,582.4z"/>
			<path fill="#FFFFFF" d="M642.9,582.4c0.1,0,0.1,0.1,0.199,0.1c2.101,1.8,3.5,4.6,3.301,8.5c-0.2,3.4-2.101,6.1-4.5,7.3
				C643.1,593.8,643.5,587.9,642.9,582.4z"/>
			<path fill="#FFFFFF" d="M624.8,609.3c-2.899,0-5.8,0-8.6,0c0.1-2.399,2.3-3.6,4.399-3.7c0.601,0,1.2,0,1.601,0.2
				c0.5,0.3,1,1.3,1.3,1.8C624,608.3,624.5,608.8,624.8,609.3z"/>
			<path fill="#FFFFFF" d="M645.3,609.3c-2.899,0-5.8,0-8.6,0c-0.101-0.2,0.3-0.5,0.5-0.8c0.6-0.8,1.399-1.8,1.899-2.7
				C642.2,605.2,645.1,606.3,645.3,609.3z"/>
		</g>
	</g>
	<text transform="matrix(1 0 0 1 -26.4287 246.7656)" fill="#FFFFFF" font-family="'Futura-Medium'" font-size="25">Game of Thrones </text>
	<text transform="matrix(1 0 0 1 -26.4287 276.7656)" fill="#FFFFFF" font-family="'Futura-Medium'" font-size="25">Companion</text>
	<text transform="matrix(1 0 0 1 -26.4287 312.7656)" fill="#FFFFFF" font-family="'Futura-Medium'" font-size="18">A character map for a pretty confusing</text>
	<text transform="matrix(1 0 0 1 -26.4287 334.3652)" fill="#FFFFFF" font-family="'Futura-Medium'" font-size="18">show. </text>
	<text transform="matrix(1 0 0 1 389.6465 256.7656)" fill="#FFFFFF" font-family="'Futura-Medium'" font-size="25">Ocoee Mobile </text>
	<text transform="matrix(1 0 0 1 389.6465 286.7656)" fill="#FFFFFF" font-family="'Futura-Medium'" font-size="25">Showcase</text>
	<text transform="matrix(1 0 0 1 389.6465 329.9658)" fill="#FFFFFF" font-family="'Futura-Medium'" font-size="18">A character map for a pretty confusing</text>
	<text transform="matrix(1 0 0 1 389.6465 351.5654)" fill="#FFFFFF" font-family="'Futura-Medium'" font-size="18">show. </text>
</g>
<g id="window">
	<g>
		
			<image overflow="visible" enable-background="new    " width="1261" height="67" xlink:href="52F52749B0A6EE8B.png"  transform="matrix(1 0 0 1 -85 -82.834)">
		</image>
		<g>
			<rect x="-55" y="-47.2" fill="#ECB90C" width="1200" height="5.5"/>
		</g>
	</g>
</g>
</svg>
