<?xml version="1.0" encoding="utf-8"?>
<!-- Generator: Adobe Illustrator 16.0.0, SVG Export Plug-In . SVG Version: 6.00 Build 0)  -->
<!DOCTYPE svg PUBLIC "-//W3C//DTD SVG 1.1//EN" "http://www.w3.org/Graphics/SVG/1.1/DTD/svg11.dtd">
<svg version="1.1" id="Layer_1" xmlns="http://www.w3.org/2000/svg" xmlns:xlink="http://www.w3.org/1999/xlink" x="0px" y="0px"
	 width="300px" height="200px" viewBox="0 0 300 200" enable-background="new 0 0 300 200" xml:space="preserve">
<g id="cityscape" display="none">
	
		<image display="inline" overflow="visible" enable-background="new    " width="1233" height="557" xlink:href="96EDBB88F61D9AE6.png"  transform="matrix(0.9732 0 0 0.9732 -46.001 -1063.8096)">
	</image>
</g>
<g id="markers" display="none">
	<g display="inline">
		<g>
			
				<image overflow="visible" opacity="0.75" enable-background="new    " width="111" height="50" xlink:href="96EDBB88F61D9AEA.png"  transform="matrix(1 0 0 1 844 -848.8096)">
			</image>
			<g>
				<rect x="859.6" y="-833.3" fill="#362B06" width="79.601" height="18.7"/>
			</g>
		</g>
		<path fill="#352B09" d="M938-833.3c5.5,0,10,4.2,10,9.4c0,5.2-4.5,9.4-10,9.4"/>
	</g>
	<g display="inline">
		
			<image overflow="visible" opacity="0.75" enable-background="new    " width="131" height="154" xlink:href="96EDBB88F61D9AED.png"  transform="matrix(1 0 0 1 779 -900.8096)">
		</image>
		<g>
			<path fill="#6C560B" d="M894.8-835.2c0,27.7-50.1,72.6-50.1,72.6S794.6-807.5,794.6-835.2c0-27.7,22.4-50.1,50.101-50.1
				C872.3-885.3,894.8-862.9,894.8-835.2z"/>
		</g>
	</g>
	<g display="inline">
		<g>
			
				<image overflow="visible" opacity="0.75" enable-background="new    " width="176" height="54" xlink:href="96EDBB88F61D9AEE.png"  transform="matrix(1 0 0 1 373.999 -843.8096)">
			</image>
			<g>
				<rect x="389.1" y="-828.5" fill="#765D06" width="145" height="23"/>
			</g>
		</g>
		<path fill="#765D06" d="M533.2-828.7c6.6,0,12,5.1,12,11.3c0,6.2-5.4,11.3-12,11.3"/>
	</g>
	<g display="inline">
		<g>
			
				<image overflow="visible" opacity="0.75" enable-background="new    " width="146" height="52" xlink:href="96EDBB88F61D9AEC.png"  transform="matrix(1 0 0 1 608.999 -969.8096)">
			</image>
			<g>
				<rect x="624.2" y="-954.2" fill="#125B56" width="115" height="20.7"/>
			</g>
		</g>
		<path fill="#155C56" d="M738.1-953.9c6,0,10.801,4.6,10.801,10.2c0,5.6-4.9,10.2-10.801,10.2"/>
	</g>
	<g display="inline">
		
			<image overflow="visible" opacity="0.75" enable-background="new    " width="142" height="166" xlink:href="96EDBB88F61D9AEB.png"  transform="matrix(1 0 0 1 540.999 -1026.8096)">
		</image>
		<g>
			<path fill="#009F96" d="M667.2-956.3c0,30.6-55.5,80.4-55.5,80.4s-55.5-49.7-55.5-80.4c0-30.6,24.8-55.5,55.5-55.5
				S667.2-986.9,667.2-956.3z"/>
		</g>
	</g>
	<g display="inline">
		
			<image overflow="visible" opacity="0.75" enable-background="new    " width="154" height="182" xlink:href="96EDBB88F61D9AE5.png"  transform="matrix(1 0 0 1 287.999 -907.8096)">
		</image>
		<g>
			<path fill="#ECB90C" d="M426.4-830.8c0,33.9-61.5,89-61.5,89s-61.5-55.1-61.5-89c0-33.9,27.5-61.5,61.5-61.5
				S426.4-864.7,426.4-830.8z"/>
		</g>
	</g>
	<g display="inline">
		
			<image overflow="visible" opacity="0.75" enable-background="new    " width="60" height="44" xlink:href="96EDBB88F61D9AE7.png"  transform="matrix(1 0 0 1 887 -845.8096)">
		</image>
		<g>
			<text transform="matrix(1 0 0 1 902.7275 -820.6475)" fill="#F2F2F2" font-family="'Futura-Medium'" font-size="11.239">Work</text>
		</g>
	</g>
	<g display="inline">
		
			<image overflow="visible" opacity="0.75" enable-background="new    " width="125" height="47" xlink:href="96EDBB88F61D9AE4.png"  transform="matrix(1 0 0 1 416.999 -840.8096)">
		</image>
		<g>
			<text transform="matrix(1 0 0 1 432.7041 -813.0078)" fill="#F2F2F2" font-family="'Futura-Medium'" font-size="13.7857">Recent Projects</text>
		</g>
	</g>
	<g display="inline">
		
			<image overflow="visible" opacity="0.75" enable-background="new    " width="86" height="46" xlink:href="D05C1ACB92476399.png"  transform="matrix(1 0 0 1 661 -966.8096)">
		</image>
		<g>
			<text transform="matrix(1 0 0 1 676.0654 -940.1406)" fill="#F2F2F2" font-family="'Futura-Medium'" font-size="12.4475">Education</text>
		</g>
	</g>
</g>
<g id="icons" display="none">
	<g display="inline">
		<rect x="584" y="-970.4" fill="#FFFFFF" width="20.4" height="7.7"/>
		<rect x="583.7" y="-960.7" fill="#FFFFFF" width="57.3" height="25.2"/>
		<rect x="606.2" y="-979.5" fill="#FFFFFF" width="12.3" height="16.8"/>
		<path fill="#FFFFFF" d="M606.3-981.4c0-4.5,2.7-8.2,6-8.2s6,3.7,6,8.2"/>
		<line fill="none" stroke="#009F96" stroke-width="3" x1="594.5" y1="-958.6" x2="594.5" y2="-939"/>
		<line fill="none" stroke="#009F96" stroke-width="3" x1="604.6" y1="-958.6" x2="604.6" y2="-939"/>
		<line fill="none" stroke="#009F96" stroke-width="3" x1="624.7" y1="-958.3" x2="624.7" y2="-938.6"/>
		<line fill="none" stroke="#009F96" stroke-width="3" x1="634.7" y1="-958.3" x2="634.7" y2="-938.6"/>
		<line fill="none" stroke="#009F96" stroke-width="3" x1="614.6" y1="-958.3" x2="614.6" y2="-938.6"/>
		<line fill="none" stroke="#009F96" stroke-width="3" x1="614.6" y1="-978.2" x2="614.6" y2="-963.1"/>
	</g>
	<g display="inline">
		<path fill="#FFFFFF" d="M381.3-810.3c0,0-18.1,7.6-36.3,0v-47.4c15.1,5,36.3,0,36.3,0V-810.3z"/>
		<path fill="none" stroke="#FFFFFF" stroke-width="6" d="M374.2-843.8c0,0,23.5-10,19.2,7.7c-2,8.2-11.4,12.3-18.7,6.7"/>
		<path fill="none" stroke="#FFFFFF" d="M345-857.6c0,0,16.1-5.5,36.3,0"/>
	</g>
	<g display="inline">
		<path fill="#FFFFFF" d="M834.9-815.5c-1.9,0-3.4-1.4-3.4-3.2v-42.7c0-1.8,1.5-3.2,3.4-3.2h19.5c1.899,0,3.399,1.4,3.399,3.2v42.7
			c0,1.8-1.5,3.2-3.399,3.2H834.9z"/>
		<rect x="832.9" y="-860.7" fill="#6C560B" width="23.6" height="37.1"/>
		<ellipse fill="#6C560B" cx="844.7" cy="-819.4" rx="1.899" ry="1.6"/>
		<circle fill="#FFFFFF" cx="835.6" cy="-857.2" r="1.5"/>
		<circle fill="#FFFFFF" cx="835.6" cy="-853.1" r="1.5"/>
		<line fill="none" stroke="#FFFFFF" x1="838" y1="-856.5" x2="846.7" y2="-856.5"/>
		<line fill="none" stroke="#FFFFFF" x1="838" y1="-852.8" x2="846.7" y2="-852.8"/>
	</g>
	<g display="inline">
		
			<image overflow="visible" opacity="0.75" enable-background="new    " width="157" height="157" xlink:href="D05C1ACB9247639F.png"  transform="matrix(1 0 0 1 115.999 -1058.8096)">
		</image>
		<g>
			<g>
				
					<circle opacity="0.7" fill="#919191" stroke="#FFFFFF" stroke-width="4" enable-background="new    " cx="187.1" cy="-987.8" r="61.1"/>
				<text transform="matrix(1 0 0 1 142.4204 -1010.0879)" fill="#FFFFFF" font-family="'Futura-Medium'" font-size="19.5379">pedro</text>
				<text transform="matrix(1 0 0 1 142.4204 -986.6875)" fill="#FFFFFF" font-family="'Futura-Medium'" font-size="19.5379">silva</text>
			</g>
		</g>
	</g>
</g>
<g id="currentProjects">
	<rect x="355" y="-515.5" opacity="0.9" fill="#B18B09" enable-background="new    " width="400" height="400"/>
	<rect x="-45" y="-515.5" opacity="0.9" fill="#ECB90C" enable-background="new    " width="400" height="400"/>
	<rect x="755" y="-515.5" opacity="0.9" fill="#765D06" enable-background="new    " width="400" height="400"/>
	<rect x="753" y="-115.5" opacity="0.9" fill="#594605" enable-background="new    " width="400" height="400"/>
	<rect x="-46" y="-116.5" opacity="0.9" fill="#FFFFFF" enable-background="new    " width="400" height="400"/>
	<rect x="354" y="-115.5" opacity="0.9" fill="#765D06" enable-background="new    " width="400" height="400"/>
	<g>
		<path fill="#CCCCCC" d="M252.9-339.8c0,6.1-4.9,11-11,11H90.8c-6.1,0-11-4.9-11-11v-91.7c0-6.1,4.9-11,11-11H241.9
			c6.1,0,11,4.9,11,11V-339.8L252.9-339.8z"/>
		<rect x="94.1" y="-423.8" fill="#E5E5E5" width="144.5" height="76.3"/>
		<path fill="#919191" d="M60.6-310.5c-3,0-5.5-1.9-5.5-4.1v-75.9c0-2.3,2.5-4.1,5.5-4.1h111.2c3,0,5.5,1.9,5.5,4.1v75.9
			c0,2.3-2.5,4.1-5.5,4.1H60.6z"/>
		<rect x="68.9" y="-387.5" fill="#FFFFFF" width="100.3" height="69.9"/>
		<circle fill="#FFFFFF" cx="62" cy="-352.5" r="2.8"/>
		<path fill="#BDBDBD" d="M104.8-385c17.9,0,32.4,14.5,32.4,32.4s-14.5,32.4-32.4,32.4"/>
		<rect x="140.1" y="-385.3" fill="#D3D3D3" width="26" height="4.8"/>
		<rect x="140.1" y="-372.2" fill="#D3D3D3" width="26" height="32.1"/>
		<rect x="140.1" y="-378.9" fill="#D3D3D3" width="26" height="4.8"/>
		<path fill="#D3D3D3" d="M105-320.1c-17.9,0-32.4-14.5-32.4-32.4S87.1-385,105-385"/>
		<circle fill="#FFFFFF" cx="104.8" cy="-352.5" r="4.7"/>
		<circle fill="#FFFFFF" cx="117.4" cy="-374.5" r="2.8"/>
		<circle fill="#FFFFFF" cx="117.5" cy="-356.6" r="2.8"/>
		<circle fill="#FFFFFF" cx="98" cy="-333.7" r="2.8"/>
		<circle fill="#FFFFFF" cx="87.8" cy="-340" r="2.8"/>
		<circle fill="#FFFFFF" cx="91.8" cy="-359.9" r="2.8"/>
		<circle fill="#FFFFFF" cx="115.7" cy="-340.5" r="2.8"/>
		<circle fill="#FFFFFF" cx="97" cy="-372.9" r="2.8"/>
		<line fill="none" stroke="#FFFFFF" x1="100.9" y1="-354.1" x2="92.8" y2="-359.1"/>
		<line fill="none" stroke="#FFFFFF" x1="103.4" y1="-356" x2="97.6" y2="-371.9"/>
		<line fill="none" stroke="#FFFFFF" x1="107.4" y1="-356.1" x2="116.8" y2="-373.2"/>
		<line fill="none" stroke="#FFFFFF" x1="108.5" y1="-353.5" x2="115.5" y2="-355.8"/>
		<line fill="none" stroke="#FFFFFF" x1="108.1" y1="-349.9" x2="115" y2="-341.7"/>
		<line fill="none" stroke="#FFFFFF" x1="103.9" y1="-349.1" x2="98.7" y2="-334.9"/>
		<line fill="none" stroke="#FFFFFF" x1="101.7" y1="-350.5" x2="87.8" y2="-340"/>
	</g>
	<g>
		<rect x="489.1" y="-333.3" fill="#BDBDBD" width="42" height="21.7"/>
		<polygon fill="#BDBDBD" points="510.7,-334.7 520.9,-353.5 531.1,-334.7 		"/>
		<line fill="none" stroke="#BDBDBD" stroke-width="3" x1="520.7" y1="-352.6" x2="500.2" y2="-352.6"/>
		<path fill="#D3D3D3" d="M589-412.8c0,19.6-35.4,52.1-35.4,52.1S518.2-393.2,518.2-412.8c0-19.6,15.899-35.4,35.399-35.4
			S589-432.4,589-412.8z"/>
		<circle fill="#BDBDBD" cx="553.6" cy="-413.5" r="21.8"/>
		<rect x="533" y="-328.5" fill="#BDBDBD" width="42" height="21.7"/>
		<polygon fill="#BDBDBD" points="554.5,-329.9 564.8,-348.7 575,-329.9 		"/>
		<line fill="none" stroke="#BDBDBD" stroke-width="3" x1="564.6" y1="-347.7" x2="544.1" y2="-347.7"/>
		<rect x="576.9" y="-333.3" fill="#BDBDBD" width="42" height="21.7"/>
		<polygon fill="#BDBDBD" points="598.4,-334.7 608.6,-353.5 618.9,-334.7 		"/>
		<line fill="none" stroke="#BDBDBD" stroke-width="3" x1="608.5" y1="-352.6" x2="588" y2="-352.6"/>
	</g>
	<g>
		<g>
			<rect x="998.1" y="-426.7" fill="#CCECEA" width="93.5" height="100.7"/>
			<rect x="1004.8" y="-393.3" fill="#BFBFBF" width="23.9" height="61.2"/>
			<rect x="1004.8" y="-406.4" fill="#BFBFBF" width="23.9" height="10.6"/>
			<rect x="1032.6" y="-377.1" fill="#BFBFBF" width="23.9" height="45.1"/>
			<rect x="1060.5" y="-377.1" fill="#BFBFBF" width="23.9" height="45.1"/>
			<rect x="1032.6" y="-406.6" fill="#BFBFAC" width="51.801" height="26.2"/>
			<polyline fill="#009F96" points="1081.1,-426.7 1091.6,-426.7 1091.6,-416.3 			"/>
			<path fill="#BFBFBF" d="M1091.6-416.5c0,0-4.699-1.7-10.5,0c1.9-5.8,0-10.5,0-10.5"/>
		</g>
		<g>
			<path fill="#8E8E8E" d="M953.4-345.4c0,4.8-3.9,8.7-8.7,8.7H825.1c-4.8,0-8.699-3.9-8.699-8.7V-418c0-4.8,3.899-8.7,8.699-8.7
				H944.7c4.8,0,8.7,3.9,8.7,8.7V-345.4L953.4-345.4z"/>
			<rect x="827.7" y="-411.9" fill="#CCECEA" width="114.399" height="60.4"/>
			<path fill="#6D6D6D" d="M897-326.1h-24.2l4.2-10.6c3.3-2.2,12.5-2.2,15.7,0L897-326.1z"/>
			<rect x="912.2" y="-400.5" fill="#867878" width="25" height="42.4"/>
			<rect x="832.1" y="-408.1" fill="#867878" width="25" height="49.9"/>
			<rect x="858.8" y="-370.9" fill="#BFBFBF" width="25" height="12.8"/>
			<rect x="885.5" y="-370.9" fill="#BFBFBF" width="25" height="12.8"/>
			<line fill="none" stroke="#8C8C8C" stroke-width="3" x1="861.1" y1="-398.2" x2="884.6" y2="-398.2"/>
			<line fill="none" stroke="#8C8C8C" stroke-width="3" x1="861.1" y1="-392.4" x2="904.9" y2="-392.4"/>
			<line fill="none" stroke="#8C8C8C" stroke-width="3" x1="861.1" y1="-386" x2="900.3" y2="-386"/>
		</g>
		<text transform="matrix(1 0 0 1 970.8604 -374.6592)" font-family="'Futura-Medium'" font-size="14.517">+</text>
	</g>
	<g>
		<g>
			<path fill="#919191" d="M204.6,183.3h-93.8V43.8c16.6-19.5,79.101-21.5,93.8,0V183.3z"/>
			<rect x="210.5" y="23.6" fill="#6D6D6D" width="73" height="132.4"/>
			<rect x="244.2" y="153.8" fill="#919191" width="5.7" height="21.8"/>
			<path fill="#6D6D6D" d="M259.4,183.5H234.6l4.301-10.9c3.3-2.3,12.699-2.3,16.1,0L259.4,183.5z"/>
			<g>
				<rect x="217.9" y="35.7" fill="#BDBDBD" width="10.8" height="17.1"/>
				<rect x="233.7" y="35.7" fill="#BDBDBD" width="10.8" height="17.1"/>
				<rect x="249.5" y="35.7" fill="#BDBDBD" width="10.8" height="17.1"/>
				<rect x="265.3" y="35.7" fill="#BDBDBD" width="10.8" height="17.1"/>
			</g>
			<g>
				<rect x="217.9" y="61.4" fill="#BDBDBD" width="10.8" height="17.1"/>
				<rect x="233.7" y="61.4" fill="#BDBDBD" width="10.8" height="17.1"/>
				<rect x="249.5" y="61.4" fill="#BDBDBD" width="10.8" height="17.1"/>
				<rect x="265.3" y="61.4" fill="#BDBDBD" width="10.8" height="17.1"/>
			</g>
			<g>
				<rect x="217.9" y="87.2" fill="#BDBDBD" width="10.8" height="17.1"/>
				<rect x="233.7" y="87.2" fill="#BDBDBD" width="10.8" height="17.1"/>
				<rect x="249.5" y="87.2" fill="#BDBDBD" width="10.8" height="17.1"/>
				<rect x="265.3" y="87.2" fill="#BDBDBD" width="10.8" height="17.1"/>
			</g>
			<g>
				<rect x="217.9" y="112.9" fill="#BDBDBD" width="10.8" height="17.1"/>
				<rect x="233.7" y="112.9" fill="#BDBDBD" width="10.8" height="17.1"/>
				<rect x="249.5" y="112.9" fill="#BDBDBD" width="10.8" height="17.1"/>
				<rect x="265.3" y="112.9" fill="#BDBDBD" width="10.8" height="17.1"/>
			</g>
			<line fill="none" stroke="#FFFFFF" stroke-width="4" x1="283.5" y1="141" x2="210" y2="141"/>
			<rect x="129.2" y="61.6" fill="#404040" width="52.5" height="49.6"/>
			<polygon fill="#BFBFBF" points="181.4,111.2 129.2,111.2 135.1,64.6 175.5,64.6 			"/>
			<rect x="188.5" y="94" width="3.6" height="13.4"/>
		</g>
		<g>
			<path fill="#919191" d="M24.7,148c-3.4,0-6.2-2.6-6.2-5.8V64.9c0-3.2,2.8-5.8,6.2-5.8H60c3.4,0,6.2,2.6,6.2,5.8v77.4
				c0,3.2-2.8,5.8-6.2,5.8H24.7V148z"/>
			<rect x="21" y="66.2" fill="#D9D9D9" width="42.6" height="67.3"/>
			<ellipse fill="#BFBFBF" cx="42.3" cy="140.9" rx="3.4" ry="2.9"/>
			<circle fill="#FFFFFF" cx="25.9" cy="72.5" r="2.7"/>
			<circle fill="#FFFFFF" cx="25.9" cy="79.8" r="2.7"/>
			<line fill="none" stroke="#FFFFFF" x1="30.3" y1="73.8" x2="46.1" y2="73.8"/>
			<line fill="none" stroke="#FFFFFF" x1="30.3" y1="80.5" x2="46.1" y2="80.5"/>
		</g>
		<text transform="matrix(1 0 0 1 83.4795 107.9375)" font-family="'Futura-Medium'" font-size="14.8403">+</text>
	</g>
	<g>
		<path fill="#CCCCCC" d="M563.2,141.6c0,9-6.9,16.301-15.4,16.301H432.6c-8.5,0-15.399-7.301-15.399-16.301V70
			c0-9-0.101-16.3,8.399-16.3h129.2c8.5,0,8.4,7.3,8.4,16.3V141.6z"/>
		<circle opacity="0.33" fill="#CCCCCC" enable-background="new    " cx="639.8" cy="100.2" r="51"/>
		<g>
			<rect x="426.3" y="52.7" fill="#FFFFFF" width="15.601" height="95.1"/>
			<rect x="444.9" y="52.7" fill="#FFFFFF" width="15.6" height="95.1"/>
			<rect x="463.6" y="52.7" fill="#FFFFFF" width="15.601" height="95.1"/>
			<rect x="482.3" y="52.7" fill="#FFFFFF" width="15.601" height="95.1"/>
			<rect x="500.9" y="52.7" fill="#FFFFFF" width="15.6" height="95.1"/>
			<rect x="519.6" y="52.7" fill="#FFFFFF" width="15.601" height="95.1"/>
			<rect x="538.2" y="52.7" fill="#FFFFFF" width="15.6" height="95.1"/>
			<rect x="526.8" y="52.7" fill="#404040" width="15.601" height="57.5"/>
			<rect x="508.1" y="52.7" fill="#404040" width="15.601" height="57.5"/>
			<rect x="489.5" y="52.7" fill="#404040" width="15.6" height="57.5"/>
			<rect x="452.2" y="52.7" fill="#404040" width="15.6" height="57.5"/>
			<rect x="433.5" y="52.7" fill="#404040" width="15.6" height="57.5"/>
		</g>
		<text transform="matrix(1 0 0 1 571.8213 104.6934)" font-family="'Futura-Medium'" font-size="15.0433">+</text>
		<g>
			<path d="M657.8,63c0.101,0,0.2,0,0.4,0c6.7,0.3,6.2,10.7-0.8,10c-2.5-0.3-4.2-2.1-4.4-4.9c-2.8-0.7-5.7-1.3-8.5-2
				c-1.1,3.2-2.1,6.7-3.2,9.9c6.2,0.3,11.101,1.9,15,4.4c0.7-0.3,1-0.7,1.601-1c4-1.9,8.3,1.2,8.6,4.8c0,0.5,0,1,0,1.5
				c-0.4,2.2-1.5,3.6-3.1,4.6c0.699,8.6-5.801,13-11.801,15.4c3.301,1.899,5.801,5.2,5.801,10.2c0,5.6-3,9.5-7.301,10.8
				c-0.399,0.899-0.699,1.899-1.1,2.8c3.8,0,6.8,1.9,7.2,4.9c0.1,1.1,0,2.3-0.601,2.699c-0.6,0.4-2.6,0.2-3.8,0.2
				c-8.2,0-16.2,0-24.399,0c-1.301,0-3.301,0.2-3.801-0.2c-0.6-0.399-0.699-1.6-0.6-2.6c0.3-3.2,3.5-5,7-5c-0.1-0.8-0.8-1.8-0.9-2.8
				c-4.3-1.2-7.3-5.5-7.3-10.8c0-4.601,2.3-8.301,5.8-10c-3.1-1.4-5.8-2.801-7.899-5c-2.101-2.101-4.101-5-4.101-8.9
				c0-0.5,0.301-1.2,0.101-1.7c-0.101-0.3-0.7-0.5-1-0.9c-0.9-0.9-1.5-2.2-1.8-3.6c0-0.5,0-1,0-1.5c0.399-2.2,1.6-3.9,3.6-4.8
				c2.1-1,4.9-0.5,6.6,0.9c4.101-2.7,9.4-4.2,15.9-4.4c0.9-3,1.9-6.1,2.9-9.2c0.3-0.8,0.5-2.6,1.199-2.8c0.7-0.2,1.801,0.2,2.5,0.4
				c2.601,0.6,5.101,1.2,7.5,1.7C654.1,64.4,655.5,63.3,657.8,63z M655,67.8c-0.4,3.7,4.8,4.4,5.8,1.2c0.7-2.4-1.399-4.1-3.399-3.7
				C656,65.5,655.1,66.5,655,67.8z M629.9,79.5c-2.301,0.7-4.2,1.7-6,2.9c-3.101,2.1-7.2,5.9-5.801,11.6c1.101,4.5,4.9,7.2,8.7,9.1
				c4.3,2,9.601,2.9,15,2.7c5.4-0.2,10-1.899,13.601-4.2c3.3-2.2,7.1-6,5.899-11.5c-1-4.8-5-7.5-8.6-9.2
				c-4.101-1.9-9.101-3.1-15.2-2.7C634.7,78.4,632.2,78.8,629.9,79.5z M616.6,88c0.9-2.8,2.801-4.6,4.801-6.4
				C617.1,78.7,612.8,85.3,616.6,88z M663.4,82.2c-1.2-1.2-3.7-1.6-5.2-0.4c2.1,1.6,3.8,3.7,4.899,6.4
				C664.8,86.9,664.9,83.7,663.4,82.2z M629.8,106.8c-1.5,9.7,0.4,20.8,4.9,26.4c0.6,0.7,1.7,2,2.5,2.2c1.6,0.399,3.5-0.301,5.1,0
				c6.9-5,8.7-17.101,7.3-28.801c-5.5,1.801-14.199,1.801-19.8,0C629.8,106.6,629.8,106.7,629.8,106.8z M624.1,117.1
				c0.2,3.301,2.101,5.9,4.4,7.2c-1.2-4.399-1.4-10.5-1.1-15.8C625.2,110.3,623.8,113.3,624.1,117.1z M650.9,124.3
				c2.399-1.2,4.3-3.899,4.5-7.3c0.3-3.9-1.2-6.7-3.301-8.5c-0.1,0-0.1-0.1-0.199-0.1C652.5,113.9,652.1,119.8,650.9,124.3z
				 M632.5,133.7c-0.3-0.5-0.8-1.601-1.3-1.8c-0.4-0.2-1-0.2-1.601-0.2c-2.1,0.1-4.399,1.3-4.399,3.7c2.899,0,5.8,0,8.6,0
				C633.5,134.8,633,134.3,632.5,133.7z M648.1,131.8c-0.5,0.9-1.3,1.9-1.899,2.7c-0.2,0.3-0.601,0.6-0.5,0.8c2.899,0,5.8,0,8.6,0
				C654.1,132.3,651.2,131.2,648.1,131.8z"/>
			<path fill="#FFFFFF" d="M657.4,65.2c2-0.4,4.199,1.3,3.399,3.7c-1,3.2-6.2,2.5-5.8-1.2C655.1,66.5,656,65.5,657.4,65.2z"/>
			<path fill="#FFFFFF" d="M637.6,78.2c6.101-0.4,11,0.8,15.2,2.7c3.601,1.7,7.5,4.4,8.601,9.2c1.199,5.5-2.601,9.4-5.9,11.5
				c-3.6,2.4-8.2,4-13.6,4.2c-5.5,0.2-10.801-0.7-15-2.7c-3.9-1.8-7.7-4.6-8.7-9.1c-1.3-5.7,2.7-9.5,5.8-11.6c1.8-1.2,3.7-2.2,6-2.9
				C632.2,78.8,634.7,78.4,637.6,78.2z M628.7,86.9C628.6,87,628,88.1,628,89c0,1.8,1.5,3.4,3,3.6c2,0.3,4.4-1.1,4.4-3.7
				c0-0.7-0.601-2-0.9-2.4c-0.5-0.6-1.8-1.3-3.2-1.2C630.1,85.6,629.2,86.2,628.7,86.9z M644.8,86.9c-0.2,0.3-0.7,1.4-0.7,2.1
				c0,1.9,1.7,3.4,3.101,3.6C649.6,93,651.6,91.2,651.6,89s-1.899-3.9-4.1-3.6C646.2,85.6,645.3,86.3,644.8,86.9z M630.9,98.6
				c-0.2,1.4,2.3,2.5,3.399,2.8c4.101,1.399,10.2,0.899,13.101-1c0.5-0.3,1.5-1,1.399-1.8c-0.1-0.6-0.5-0.8-0.899-0.8
				c-0.7-0.1-1.4,0.7-1.2,0.6c-1.601,1.3-3.7,1.7-6.8,1.7c-3.101,0-5.301-0.5-6.9-1.7c-0.1-0.1-0.5-0.7-1.3-0.5
				C631.3,98,630.9,98.3,630.9,98.6z"/>
			<path fill="#FFFFFF" d="M621.4,81.6c-2,1.7-3.801,3.6-4.801,6.4C612.8,85.3,617.1,78.7,621.4,81.6z"/>
			<path fill="#FFFFFF" d="M663,88.2c-1.1-2.7-2.7-4.8-4.9-6.4c1.5-1.3,4-0.9,5.2,0.4C664.9,83.7,664.8,86.9,663,88.2z"/>
			<path fill="#ABA4A4" d="M631.3,85.4c1.4-0.2,2.7,0.6,3.2,1.2c0.4,0.4,0.9,1.7,0.9,2.4c0.1,2.7-2.4,4-4.4,3.7
				c-1.5-0.2-3.1-1.8-3-3.6c0-0.9,0.6-2,0.7-2.1C629.2,86.2,630.1,85.6,631.3,85.4z"/>
			<path fill="#ABA4A4" d="M647.4,85.4c2.3-0.3,4.1,1.4,4.1,3.6c0,2.3-2,4-4.4,3.6c-1.399-0.2-3.1-1.7-3.1-3.6
				c0-0.7,0.5-1.8,0.7-2.1C645.3,86.3,646.2,85.6,647.4,85.4z"/>
			<path d="M631.6,97.9c0.801-0.2,1.2,0.4,1.301,0.5c1.6,1.2,3.8,1.7,6.899,1.7c3.2,0,5.2-0.5,6.8-1.7c-0.1,0.1,0.5-0.7,1.2-0.6
				c0.4,0,0.8,0.2,0.9,0.8c0.1,0.8-0.9,1.5-1.4,1.8c-2.899,2-9,2.4-13.1,1c-1.101-0.4-3.601-1.5-3.4-2.8
				C630.9,98.3,631.3,98,631.6,97.9z"/>
			<path fill="#FFFFFF" d="M629.9,106.6c5.5,1.801,14.199,1.801,19.8,0c1.399,11.7-0.4,23.801-7.3,28.801
				c-1.5-0.301-3.5,0.399-5.101,0c-0.8-0.2-1.899-1.4-2.5-2.2c-4.6-5.601-6.399-16.7-4.899-26.4
				C629.8,106.7,629.8,106.6,629.9,106.6z"/>
			<path fill="#FFFFFF" d="M627.4,108.4c-0.301,5.3-0.101,11.399,1.1,15.8c-2.3-1.3-4.2-3.8-4.4-7.2
				C623.8,113.3,625.2,110.3,627.4,108.4z"/>
			<path fill="#FFFFFF" d="M651.9,108.4c0.1,0,0.1,0.1,0.199,0.1c2.101,1.8,3.5,4.6,3.301,8.5c-0.2,3.4-2.101,6.1-4.5,7.3
				C652.1,119.8,652.5,113.9,651.9,108.4z"/>
			<path fill="#FFFFFF" d="M633.8,135.3c-2.899,0-5.8,0-8.6,0c0.1-2.399,2.3-3.6,4.399-3.7c0.601,0,1.2,0,1.601,0.2
				c0.5,0.3,1,1.3,1.3,1.8C633,134.3,633.5,134.8,633.8,135.3z"/>
			<path fill="#FFFFFF" d="M654.3,135.3c-2.899,0-5.8,0-8.6,0c-0.101-0.2,0.3-0.5,0.5-0.8c0.6-0.8,1.399-1.8,1.899-2.7
				C651.2,131.2,654.1,132.3,654.3,135.3z"/>
		</g>
	</g>
	<text transform="matrix(1 0 0 1 -17.4292 -227.21)" fill="#FFFFFF" font-family="'Futura-Medium'" font-size="25">Game of Thrones </text>
	<text transform="matrix(1 0 0 1 -17.4292 -197.21)" fill="#FFFFFF" font-family="'Futura-Medium'" font-size="25">Companion</text>
	<text transform="matrix(1 0 0 1 -17.4292 -161.21)" fill="#FFFFFF" font-family="'Futura-Medium'" font-size="18">A character map for a pretty confusing</text>
	<text transform="matrix(1 0 0 1 -17.4292 -139.6104)" fill="#FFFFFF" font-family="'Futura-Medium'" font-size="18">show. </text>
	<text transform="matrix(1 0 0 1 398.6465 -217.21)" fill="#FFFFFF" font-family="'Futura-Medium'" font-size="25">Ocoee Mobile </text>
	<text transform="matrix(1 0 0 1 398.6465 -187.21)" fill="#FFFFFF" font-family="'Futura-Medium'" font-size="25">Showcase</text>
	<text transform="matrix(1 0 0 1 398.6465 -144.0107)" fill="#FFFFFF" font-family="'Futura-Medium'" font-size="18">A character map for a pretty confusing</text>
	<text transform="matrix(1 0 0 1 398.6465 -122.4102)" fill="#FFFFFF" font-family="'Futura-Medium'" font-size="18">show. </text>
</g>
<g id="window" display="none">
	<g display="inline">
		
			<image overflow="visible" enable-background="new    " width="1261" height="67" xlink:href="D05C1ACB92476398.png"  transform="matrix(1 0 0 1 -76.001 -556.8096)">
		</image>
		<g>
			<rect x="-46" y="-521.2" fill="#ECB90C" width="1200" height="5.5"/>
		</g>
	</g>
</g>
</svg>
