<?xml version="1.0" encoding="utf-8"?>
<!-- Generator: Adobe Illustrator 16.0.0, SVG Export Plug-In . SVG Version: 6.00 Build 0)  -->
<!DOCTYPE svg PUBLIC "-//W3C//DTD SVG 1.1//EN" "http://www.w3.org/Graphics/SVG/1.1/DTD/svg11.dtd">
<svg version="1.1" id="Layer_1" xmlns="http://www.w3.org/2000/svg" xmlns:xlink="http://www.w3.org/1999/xlink" x="0px" y="0px"
	 width="300px" height="200px" viewBox="0 0 300 200" enable-background="new 0 0 300 200" xml:space="preserve">
<g id="cityscape" display="none">
	
		<image display="inline" overflow="visible" enable-background="new    " width="1233" height="557" xlink:href="253015FF72185932.png"  transform="matrix(0.9732 0 0 0.9732 -449.335 -1063.1436)">
	</image>
</g>
<g id="markers" display="none">
	<g display="inline">
		<g>
			
				<image overflow="visible" opacity="0.75" enable-background="new    " width="111" height="50" xlink:href="253015FF72185936.png"  transform="matrix(1 0 0 1 440.665 -848.1436)">
			</image>
			<g>
				<rect x="456.3" y="-832.7" fill="#362B06" width="79.601" height="18.7"/>
			</g>
		</g>
		<path fill="#352B09" d="M534.7-832.7c5.5,0,10,4.2,10,9.4c0,5.2-4.5,9.4-10,9.4"/>
	</g>
	<g display="inline">
		
			<image overflow="visible" opacity="0.75" enable-background="new    " width="131" height="154" xlink:href="253015FF72185931.png"  transform="matrix(1 0 0 1 375.665 -900.1436)">
		</image>
		<g>
			<path fill="#6C560B" d="M491.4-834.5c0,27.7-50.101,72.6-50.101,72.6s-50.1-44.9-50.1-72.6s22.399-50.1,50.1-50.1
				C469-884.7,491.4-862.2,491.4-834.5z"/>
		</g>
	</g>
	<g display="inline">
		<g>
			
				<image overflow="visible" opacity="0.75" enable-background="new    " width="176" height="54" xlink:href="253015FF72185933.png"  transform="matrix(1 0 0 1 -29.334 -843.1436)">
			</image>
			<g>
				<rect x="-14.3" y="-827.8" fill="#765D06" width="145" height="23"/>
			</g>
		</g>
		<path fill="#765D06" d="M129.9-828c6.6,0,12,5.1,12,11.3c0,6.2-5.4,11.3-12,11.3"/>
	</g>
	<g display="inline">
		<g>
			
				<image overflow="visible" opacity="0.75" enable-background="new    " width="146" height="52" xlink:href="253015FF72185930.png"  transform="matrix(1 0 0 1 205.666 -969.1436)">
			</image>
			<g>
				<rect x="220.9" y="-953.5" fill="#125B56" width="115" height="20.7"/>
			</g>
		</g>
		<path fill="#155C56" d="M334.8-953.3c6,0,10.8,4.6,10.8,10.2s-4.899,10.2-10.8,10.2"/>
	</g>
	<g display="inline">
		
			<image overflow="visible" opacity="0.75" enable-background="new    " width="142" height="166" xlink:href="253015FF7218593E.png"  transform="matrix(1 0 0 1 137.666 -1026.1436)">
		</image>
		<g>
			<path fill="#009F96" d="M263.9-955.6c0,30.6-55.5,80.4-55.5,80.4s-55.5-49.7-55.5-80.4c0-30.6,24.8-55.5,55.5-55.5
				C239.1-1011.1,263.9-986.3,263.9-955.6z"/>
		</g>
	</g>
	<g display="inline">
		
			<image overflow="visible" opacity="0.75" enable-background="new    " width="154" height="182" xlink:href="253015FF72185935.png"  transform="matrix(1 0 0 1 -115.334 -907.1436)">
		</image>
		<g>
			<path fill="#ECB90C" d="M23.1-830.1c0,33.9-61.5,89-61.5,89s-61.5-55.1-61.5-89s27.5-61.5,61.5-61.5S23.1-864.1,23.1-830.1z"/>
		</g>
	</g>
	<g display="inline">
		
			<image overflow="visible" opacity="0.75" enable-background="new    " width="60" height="44" xlink:href="253015FF72185937.png"  transform="matrix(1 0 0 1 483.665 -845.1436)">
		</image>
		<g>
			<text transform="matrix(1 0 0 1 499.3945 -819.9814)" fill="#F2F2F2" font-family="'Futura-Medium'" font-size="11.239">Work</text>
		</g>
	</g>
	<g display="inline">
		
			<image overflow="visible" opacity="0.75" enable-background="new    " width="125" height="47" xlink:href="253015FF72185934.png"  transform="matrix(1 0 0 1 13.666 -840.1436)">
		</image>
		<g>
			<text transform="matrix(1 0 0 1 29.3706 -812.3418)" fill="#F2F2F2" font-family="'Futura-Medium'" font-size="13.7857">Recent Projects</text>
		</g>
	</g>
	<g display="inline">
		
			<image overflow="visible" opacity="0.75" enable-background="new    " width="86" height="46" xlink:href="5FF32DEB7D84E485.png"  transform="matrix(1 0 0 1 257.666 -966.1436)">
		</image>
		<g>
			<text transform="matrix(1 0 0 1 272.7324 -939.4746)" fill="#F2F2F2" font-family="'Futura-Medium'" font-size="12.4475">Education</text>
		</g>
	</g>
</g>
<g id="icons" display="none">
	<g display="inline">
		<rect x="180.7" y="-969.7" fill="#FFFFFF" width="20.399" height="7.7"/>
		<rect x="180.4" y="-960" fill="#FFFFFF" width="57.3" height="25.2"/>
		<rect x="202.9" y="-978.8" fill="#FFFFFF" width="12.3" height="16.8"/>
		<path fill="#FFFFFF" d="M203-980.8c0-4.5,2.7-8.2,6-8.2s6,3.7,6,8.2"/>
		<line fill="none" stroke="#009F96" stroke-width="3" x1="191.2" y1="-958" x2="191.2" y2="-938.3"/>
		<line fill="none" stroke="#009F96" stroke-width="3" x1="201.2" y1="-958" x2="201.2" y2="-938.3"/>
		<line fill="none" stroke="#009F96" stroke-width="3" x1="221.4" y1="-957.6" x2="221.4" y2="-938"/>
		<line fill="none" stroke="#009F96" stroke-width="3" x1="231.4" y1="-957.6" x2="231.4" y2="-938"/>
		<line fill="none" stroke="#009F96" stroke-width="3" x1="211.3" y1="-957.6" x2="211.3" y2="-938"/>
		<line fill="none" stroke="#009F96" stroke-width="3" x1="211.3" y1="-977.6" x2="211.3" y2="-962.4"/>
	</g>
	<g display="inline">
		<path fill="#FFFFFF" d="M-22.1-809.6c0,0-18.1,7.6-36.3,0V-857c15.1,5,36.3,0,36.3,0V-809.6z"/>
		<path fill="none" stroke="#FFFFFF" stroke-width="6" d="M-29.1-843.1c0,0,23.5-10,19.2,7.7c-2,8.2-11.4,12.3-18.7,6.7"/>
		<path fill="none" stroke="#FFFFFF" d="M-58.3-857c0,0,16.1-5.5,36.3,0"/>
	</g>
	<g display="inline">
		<path fill="#FFFFFF" d="M431.6-814.8c-1.899,0-3.399-1.4-3.399-3.2v-42.7c0-1.8,1.5-3.2,3.399-3.2h19.5c1.9,0,3.4,1.4,3.4,3.2
			v42.7c0,1.8-1.5,3.2-3.4,3.2H431.6z"/>
		<rect x="429.5" y="-860" fill="#6C560B" width="23.6" height="37.1"/>
		<ellipse fill="#6C560B" cx="441.3" cy="-818.8" rx="1.9" ry="1.6"/>
		<circle fill="#FFFFFF" cx="432.2" cy="-856.5" r="1.5"/>
		<circle fill="#FFFFFF" cx="432.2" cy="-852.5" r="1.5"/>
		<line fill="none" stroke="#FFFFFF" x1="434.7" y1="-855.8" x2="443.4" y2="-855.8"/>
		<line fill="none" stroke="#FFFFFF" x1="434.7" y1="-852.1" x2="443.4" y2="-852.1"/>
	</g>
	<g display="inline">
		
			<image overflow="visible" opacity="0.75" enable-background="new    " width="157" height="157" xlink:href="5FF32DEB7D84E49B.png"  transform="matrix(1 0 0 1 -287.334 -1058.1436)">
		</image>
		<g>
			<g>
				
					<circle opacity="0.7" fill="#919191" stroke="#FFFFFF" stroke-width="4" enable-background="new    " cx="-216.3" cy="-987.1" r="61.1"/>
				<text transform="matrix(1 0 0 1 -260.9131 -1009.4219)" fill="#FFFFFF" font-family="'Futura-Medium'" font-size="19.5379">pedro</text>
				<text transform="matrix(1 0 0 1 -260.9131 -986.0215)" fill="#FFFFFF" font-family="'Futura-Medium'" font-size="19.5379">silva</text>
			</g>
		</g>
	</g>
</g>
<g id="currentProjects">
	<rect x="-48.3" y="-513.8" opacity="0.9" fill="#B18B09" enable-background="new    " width="400" height="400"/>
	<rect x="-448.3" y="-513.8" opacity="0.9" fill="#ECB90C" enable-background="new    " width="400" height="400"/>
	<rect x="351.7" y="-513.8" opacity="0.9" fill="#765D06" enable-background="new    " width="400" height="400"/>
	<rect x="349.7" y="-113.8" opacity="0.9" fill="#594605" enable-background="new    " width="400" height="400"/>
	<rect x="-449.3" y="-114.8" opacity="0.9" fill="#B18B09" enable-background="new    " width="400" height="400"/>
	<rect x="-49.3" y="-113.8" opacity="0.9" fill="#FFFFFF" enable-background="new    " width="400" height="400"/>
	<g>
		<path fill="#CCCCCC" d="M-150.4-338.1c0,6.1-4.9,11-11,11h-151.1c-6.1,0-11-4.9-11-11v-91.7c0-6.1,4.9-11,11-11h151.1
			c6.1,0,11,4.9,11,11V-338.1z"/>
		<rect x="-309.2" y="-422.1" fill="#E5E5E5" width="144.5" height="76.3"/>
		<path fill="#919191" d="M-342.7-308.8c-3,0-5.5-1.9-5.5-4.1v-75.9c0-2.3,2.5-4.1,5.5-4.1h111.2c3,0,5.5,1.9,5.5,4.1v75.9
			c0,2.3-2.5,4.1-5.5,4.1H-342.7z"/>
		<rect x="-334.4" y="-385.8" fill="#FFFFFF" width="100.3" height="69.9"/>
		<circle fill="#FFFFFF" cx="-341.4" cy="-350.9" r="2.8"/>
		<path fill="#BDBDBD" d="M-298.5-383.3c17.9,0,32.4,14.5,32.4,32.4s-14.5,32.4-32.4,32.4"/>
		<rect x="-263.2" y="-383.6" fill="#D3D3D3" width="26" height="4.8"/>
		<rect x="-263.2" y="-370.5" fill="#D3D3D3" width="26" height="32.1"/>
		<rect x="-263.2" y="-377.2" fill="#D3D3D3" width="26" height="4.8"/>
		<path fill="#D3D3D3" d="M-298.3-318.4c-17.9,0-32.4-14.5-32.4-32.4c0-17.9,14.5-32.4,32.4-32.4"/>
		<circle fill="#FFFFFF" cx="-298.5" cy="-350.9" r="4.7"/>
		<circle fill="#FFFFFF" cx="-285.9" cy="-372.8" r="2.8"/>
		<circle fill="#FFFFFF" cx="-285.8" cy="-354.9" r="2.8"/>
		<circle fill="#FFFFFF" cx="-305.3" cy="-332" r="2.8"/>
		<circle fill="#FFFFFF" cx="-315.6" cy="-338.3" r="2.8"/>
		<circle fill="#FFFFFF" cx="-311.5" cy="-358.2" r="2.8"/>
		<circle fill="#FFFFFF" cx="-287.7" cy="-338.8" r="2.8"/>
		<circle fill="#FFFFFF" cx="-306.3" cy="-371.2" r="2.8"/>
		<line fill="none" stroke="#FFFFFF" x1="-302.4" y1="-352.4" x2="-310.6" y2="-357.4"/>
		<line fill="none" stroke="#FFFFFF" x1="-299.9" y1="-354.4" x2="-305.7" y2="-370.2"/>
		<line fill="none" stroke="#FFFFFF" x1="-296" y1="-354.5" x2="-286.6" y2="-371.5"/>
		<line fill="none" stroke="#FFFFFF" x1="-294.9" y1="-351.8" x2="-287.8" y2="-354.2"/>
		<line fill="none" stroke="#FFFFFF" x1="-295.2" y1="-348.2" x2="-288.3" y2="-340"/>
		<line fill="none" stroke="#FFFFFF" x1="-299.4" y1="-347.4" x2="-304.6" y2="-333.3"/>
		<line fill="none" stroke="#FFFFFF" x1="-301.6" y1="-348.8" x2="-315.6" y2="-338.3"/>
	</g>
	<g>
		<rect x="85.8" y="-331.6" fill="#BDBDBD" width="42" height="21.7"/>
		<polygon fill="#BDBDBD" points="107.3,-333.1 117.5,-351.9 127.8,-333.1 		"/>
		<line fill="none" stroke="#BDBDBD" stroke-width="3" x1="117.4" y1="-350.9" x2="96.9" y2="-350.9"/>
		<path fill="#D3D3D3" d="M185.7-411.1c0,19.6-35.4,52.1-35.4,52.1s-35.4-32.5-35.4-52.1s15.9-35.4,35.4-35.4
			S185.7-430.7,185.7-411.1z"/>
		<circle fill="#BDBDBD" cx="150.2" cy="-411.8" r="21.8"/>
		<rect x="129.7" y="-326.8" fill="#BDBDBD" width="42" height="21.7"/>
		<polygon fill="#BDBDBD" points="151.2,-328.2 161.4,-347 171.6,-328.2 		"/>
		<line fill="none" stroke="#BDBDBD" stroke-width="3" x1="161.3" y1="-346.1" x2="140.8" y2="-346.1"/>
		<rect x="173.6" y="-331.6" fill="#BDBDBD" width="42" height="21.7"/>
		<polygon fill="#BDBDBD" points="195.1,-333.1 205.3,-351.9 215.5,-333.1 		"/>
		<line fill="none" stroke="#BDBDBD" stroke-width="3" x1="205.1" y1="-350.9" x2="184.7" y2="-350.9"/>
	</g>
	<g>
		<g>
			<rect x="594.8" y="-425" fill="#CCECEA" width="93.5" height="100.7"/>
			<rect x="601.5" y="-391.6" fill="#BFBFBF" width="23.9" height="61.2"/>
			<rect x="601.5" y="-404.7" fill="#BFBFBF" width="23.9" height="10.6"/>
			<rect x="629.3" y="-375.5" fill="#BFBFBF" width="23.9" height="45.1"/>
			<rect x="657.1" y="-375.5" fill="#BFBFBF" width="23.9" height="45.1"/>
			<rect x="629.3" y="-405" fill="#BFBFAC" width="51.8" height="26.2"/>
			<polyline fill="#009F96" points="677.8,-425 688.3,-425 688.3,-414.6 			"/>
			<path fill="#BFBFBF" d="M688.3-414.8c0,0-4.7-1.7-10.5,0c1.9-5.8,0-10.5,0-10.5"/>
		</g>
		<g>
			<path fill="#8E8E8E" d="M550.1-343.7c0,4.8-3.899,8.7-8.699,8.7H421.8c-4.8,0-8.7-3.9-8.7-8.7v-72.6c0-4.8,3.9-8.7,8.7-8.7H541.4
				c4.8,0,8.699,3.9,8.699,8.7V-343.7z"/>
			<rect x="424.4" y="-410.2" fill="#CCECEA" width="114.399" height="60.4"/>
			<path fill="#6D6D6D" d="M493.7-324.4h-24.2l4.2-10.6c3.3-2.2,12.5-2.2,15.7,0L493.7-324.4z"/>
			<rect x="508.9" y="-398.9" fill="#867878" width="25" height="42.4"/>
			<rect x="428.7" y="-406.4" fill="#867878" width="25" height="49.9"/>
			<rect x="455.4" y="-369.3" fill="#BFBFBF" width="25" height="12.8"/>
			<rect x="482.1" y="-369.3" fill="#BFBFBF" width="25" height="12.8"/>
			<line fill="none" stroke="#8C8C8C" stroke-width="3" x1="457.8" y1="-396.6" x2="481.3" y2="-396.6"/>
			<line fill="none" stroke="#8C8C8C" stroke-width="3" x1="457.8" y1="-390.7" x2="501.6" y2="-390.7"/>
			<line fill="none" stroke="#8C8C8C" stroke-width="3" x1="457.8" y1="-384.4" x2="497" y2="-384.4"/>
		</g>
		<text transform="matrix(1 0 0 1 567.5273 -372.9932)" font-family="'Futura-Medium'" font-size="14.517">+</text>
	</g>
	<g>
		<g>
			<path fill="#919191" d="M-198.8,185h-93.8V45.5c16.6-19.5,79.1-21.5,93.8,0V185z"/>
			<rect x="-192.8" y="25.3" fill="#6D6D6D" width="73" height="132.4"/>
			<rect x="-159.2" y="155.4" fill="#919191" width="5.7" height="21.8"/>
			<path fill="#6D6D6D" d="M-143.9,185.1h-24.8l4.3-10.899c3.3-2.3,12.7-2.3,16.1,0L-143.9,185.1z"/>
			<g>
				<rect x="-185.4" y="37.4" fill="#BDBDBD" width="10.8" height="17.1"/>
				<rect x="-169.6" y="37.4" fill="#BDBDBD" width="10.8" height="17.1"/>
				<rect x="-153.8" y="37.4" fill="#BDBDBD" width="10.8" height="17.1"/>
				<rect x="-138" y="37.4" fill="#BDBDBD" width="10.8" height="17.1"/>
			</g>
			<g>
				<rect x="-185.4" y="63.1" fill="#BDBDBD" width="10.8" height="17.1"/>
				<rect x="-169.6" y="63.1" fill="#BDBDBD" width="10.8" height="17.1"/>
				<rect x="-153.8" y="63.1" fill="#BDBDBD" width="10.8" height="17.1"/>
				<rect x="-138" y="63.1" fill="#BDBDBD" width="10.8" height="17.1"/>
			</g>
			<g>
				<rect x="-185.4" y="88.8" fill="#BDBDBD" width="10.8" height="17.101"/>
				<rect x="-169.6" y="88.8" fill="#BDBDBD" width="10.8" height="17.101"/>
				<rect x="-153.8" y="88.8" fill="#BDBDBD" width="10.8" height="17.101"/>
				<rect x="-138" y="88.8" fill="#BDBDBD" width="10.8" height="17.101"/>
			</g>
			<g>
				<rect x="-185.4" y="114.6" fill="#BDBDBD" width="10.8" height="17.101"/>
				<rect x="-169.6" y="114.6" fill="#BDBDBD" width="10.8" height="17.101"/>
				<rect x="-153.8" y="114.6" fill="#BDBDBD" width="10.8" height="17.101"/>
				<rect x="-138" y="114.6" fill="#BDBDBD" width="10.8" height="17.101"/>
			</g>
			<line fill="none" stroke="#FFFFFF" stroke-width="4" x1="-119.8" y1="142.7" x2="-193.3" y2="142.7"/>
			<rect x="-274.1" y="63.3" fill="#404040" width="52.5" height="49.601"/>
			<polygon fill="#BFBFBF" points="-221.9,112.9 -274.1,112.9 -268.2,66.3 -227.8,66.3 			"/>
			<rect x="-214.8" y="95.6" width="3.6" height="13.4"/>
		</g>
		<g>
			<path fill="#919191" d="M-378.6,149.7c-3.4,0-6.2-2.601-6.2-5.8V66.5c0-3.2,2.8-5.8,6.2-5.8h35.3c3.4,0,6.2,2.6,6.2,5.8v77.4
				c0,3.199-2.8,5.8-6.2,5.8H-378.6z"/>
			<rect x="-382.3" y="67.9" fill="#D9D9D9" width="42.6" height="67.3"/>
			<ellipse fill="#BFBFBF" cx="-361" cy="142.5" rx="3.4" ry="2.9"/>
			<circle fill="#FFFFFF" cx="-377.5" cy="74.1" r="2.7"/>
			<circle fill="#FFFFFF" cx="-377.5" cy="81.5" r="2.7"/>
			<line fill="none" stroke="#FFFFFF" x1="-373" y1="75.5" x2="-357.2" y2="75.5"/>
			<line fill="none" stroke="#FFFFFF" x1="-373" y1="82.2" x2="-357.2" y2="82.2"/>
		</g>
		<text transform="matrix(1 0 0 1 -319.8535 109.6035)" font-family="'Futura-Medium'" font-size="14.8403">+</text>
	</g>
	<g>
		<path fill="#CCCCCC" d="M159.9,143.2c0,9-6.9,16.3-15.4,16.3H29.3c-8.5,0-15.4-7.3-15.4-16.3V71.6c0-9-0.1-16.3,8.4-16.3h129.2
			c8.5,0,8.4,7.3,8.4,16.3V143.2z"/>
		<circle opacity="0.33" fill="#CCCCCC" enable-background="new    " cx="236.5" cy="101.9" r="51"/>
		<g>
			<rect x="23" y="54.4" fill="#FFFFFF" width="15.6" height="95.1"/>
			<rect x="41.6" y="54.4" fill="#FFFFFF" width="15.6" height="95.1"/>
			<rect x="60.3" y="54.4" fill="#FFFFFF" width="15.6" height="95.1"/>
			<rect x="78.9" y="54.4" fill="#FFFFFF" width="15.6" height="95.1"/>
			<rect x="97.6" y="54.4" fill="#FFFFFF" width="15.6" height="95.1"/>
			<rect x="116.2" y="54.4" fill="#FFFFFF" width="15.6" height="95.1"/>
			<rect x="134.9" y="54.4" fill="#FFFFFF" width="15.6" height="95.1"/>
			<rect x="123.4" y="54.4" fill="#404040" width="15.6" height="57.5"/>
			<rect x="104.8" y="54.4" fill="#404040" width="15.6" height="57.5"/>
			<rect x="86.1" y="54.4" fill="#404040" width="15.6" height="57.5"/>
			<rect x="48.8" y="54.4" fill="#404040" width="15.6" height="57.5"/>
			<rect x="30.2" y="54.4" fill="#404040" width="15.6" height="57.5"/>
		</g>
		<text transform="matrix(1 0 0 1 168.4883 106.3594)" font-family="'Futura-Medium'" font-size="15.0433">+</text>
		<g>
			<path d="M254.4,64.7c0.1,0,0.199,0,0.399,0c6.7,0.3,6.2,10.7-0.8,10c-2.5-0.3-4.2-2.1-4.4-4.9c-2.8-0.7-5.699-1.3-8.5-2
				c-1.1,3.2-2.1,6.7-3.199,9.9c6.199,0.3,11.1,1.9,15,4.4c0.699-0.3,1-0.7,1.6-1c4-1.9,8.3,1.2,8.6,4.8c0,0.5,0,1,0,1.5
				c-0.399,2.2-1.5,3.6-3.1,4.6c0.7,8.6-5.8,13-11.8,15.4c3.3,1.899,5.8,5.199,5.8,10.199c0,5.601-3,9.5-7.3,10.801
				c-0.4,0.899-0.7,1.899-1.101,2.8c3.801,0,6.801,1.899,7.2,4.899c0.101,1.101,0,2.301-0.6,2.7c-0.601,0.4-2.601,0.2-3.8,0.2
				c-8.2,0-16.2,0-24.4,0c-1.3,0-3.3,0.2-3.8-0.2c-0.601-0.399-0.7-1.6-0.601-2.6c0.301-3.2,3.5-5,7-5c-0.1-0.8-0.8-1.8-0.899-2.8
				c-4.3-1.2-7.3-5.5-7.3-10.801c0-4.6,2.3-8.3,5.8-10c-3.101-1.399-5.8-2.8-7.9-5c-2.1-2.1-4.1-5-4.1-8.899c0-0.5,0.3-1.2,0.1-1.7
				c-0.1-0.3-0.7-0.5-1-0.9c-0.899-0.9-1.5-2.2-1.8-3.6c0-0.5,0-1,0-1.5c0.4-2.2,1.6-3.9,3.6-4.8c2.101-1,4.9-0.5,6.601,0.9
				c4.1-2.7,9.399-4.2,15.899-4.4c0.9-3,1.9-6.1,2.9-9.2c0.3-0.8,0.5-2.6,1.2-2.8c0.7-0.2,1.8,0.2,2.5,0.4c2.6,0.6,5.1,1.2,7.5,1.7
				C250.8,66.1,252.2,65,254.4,64.7z M251.7,69.4c-0.4,3.7,4.8,4.4,5.8,1.2c0.7-2.4-1.4-4.1-3.4-3.7
				C252.7,67.1,251.8,68.1,251.7,69.4z M226.6,81.2c-2.3,0.7-4.199,1.7-6,2.9c-3.1,2.1-7.199,5.9-5.8,11.6
				c1.101,4.5,4.9,7.2,8.7,9.1c4.3,2,9.6,2.9,15,2.7s10-1.9,13.6-4.2c3.301-2.2,7.101-6,5.9-11.5c-1-4.8-5-7.5-8.6-9.2
				c-4.101-1.9-9.101-3.1-15.2-2.7C231.3,80,228.9,80.5,226.6,81.2z M213.2,89.7c0.899-2.8,2.8-4.6,4.8-6.4
				C213.8,80.4,209.5,87,213.2,89.7z M260,83.8c-1.2-1.2-3.7-1.6-5.2-0.4c2.101,1.6,3.8,3.7,4.9,6.4C261.5,88.6,261.6,85.4,260,83.8
				z M226.5,108.4c-1.5,9.699,0.4,20.8,4.9,26.399c0.6,0.7,1.699,2,2.5,2.2c1.6,0.4,3.5-0.3,5.1,0c6.9-5,8.7-17.1,7.3-28.8
				c-5.5,1.8-14.2,1.8-19.8,0C226.4,108.2,226.5,108.3,226.5,108.4z M220.7,118.8c0.2,3.3,2.1,5.9,4.399,7.2
				c-1.199-4.4-1.399-10.5-1.1-15.8C221.8,111.9,220.4,115,220.7,118.8z M247.6,125.9c2.4-1.2,4.301-3.9,4.5-7.301
				c0.301-3.899-1.199-6.699-3.3-8.5c-0.1,0-0.1-0.1-0.2-0.1C249.1,115.6,248.7,121.5,247.6,125.9z M229.1,135.3
				c-0.3-0.5-0.8-1.6-1.3-1.8c-0.399-0.2-1-0.2-1.6-0.2c-2.101,0.101-4.4,1.3-4.4,3.7c2.9,0,5.8,0,8.601,0
				C230.1,136.5,229.6,136,229.1,135.3z M244.8,133.5c-0.5,0.9-1.3,1.9-1.899,2.7c-0.2,0.3-0.601,0.6-0.5,0.8c2.899,0,5.8,0,8.6,0
				C250.8,134,247.9,132.9,244.8,133.5z"/>
			<path fill="#FFFFFF" d="M254.1,66.9c2-0.4,4.2,1.3,3.4,3.7c-1,3.2-6.2,2.5-5.8-1.2C251.8,68.1,252.7,67.1,254.1,66.9z"/>
			<path fill="#FFFFFF" d="M234.2,79.8c6.1-0.4,11,0.8,15.2,2.7c3.6,1.7,7.5,4.4,8.6,9.2c1.2,5.5-2.6,9.399-5.9,11.5
				c-3.6,2.399-8.199,4-13.6,4.2c-5.5,0.199-10.8-0.7-15-2.7c-3.9-1.8-7.7-4.6-8.7-9.1c-1.3-5.7,2.7-9.5,5.8-11.6
				c1.801-1.2,3.7-2.2,6-2.9C228.9,80.5,231.3,80,234.2,79.8z M225.4,88.6c-0.101,0.1-0.7,1.2-0.7,2.1c0,1.8,1.5,3.4,3,3.6
				c2,0.3,4.399-1.1,4.399-3.7c0-0.7-0.6-2-0.899-2.4c-0.5-0.6-1.8-1.3-3.2-1.2C226.8,87.2,225.9,87.9,225.4,88.6z M241.5,88.6
				c-0.2,0.3-0.7,1.4-0.7,2.1c0,1.9,1.7,3.4,3.101,3.6c2.399,0.4,4.399-1.4,4.399-3.6c0-2.2-1.899-3.9-4.1-3.6
				C242.9,87.2,242,87.9,241.5,88.6z M227.5,100.3c-0.2,1.4,2.3,2.5,3.4,2.8c4.1,1.4,10.199,0.9,13.1-1c0.5-0.3,1.5-1,1.4-1.8
				c-0.101-0.6-0.5-0.8-0.9-0.8c-0.7-0.1-1.4,0.7-1.2,0.6c-1.6,1.3-3.7,1.7-6.8,1.7s-5.3-0.5-6.9-1.7c-0.1-0.1-0.5-0.7-1.3-0.5
				C227.9,99.7,227.6,100,227.5,100.3z"/>
			<path fill="#FFFFFF" d="M218,83.3c-2,1.7-3.8,3.6-4.8,6.4C209.5,87,213.8,80.4,218,83.3z"/>
			<path fill="#FFFFFF" d="M259.7,89.8c-1.101-2.7-2.7-4.8-4.9-6.4c1.5-1.3,4-0.9,5.2,0.4C261.6,85.4,261.5,88.6,259.7,89.8z"/>
			<path fill="#ABA4A4" d="M228,87.1c1.4-0.2,2.7,0.6,3.2,1.2c0.399,0.4,0.899,1.7,0.899,2.4c0.101,2.7-2.399,4-4.399,3.7
				c-1.5-0.2-3.101-1.8-3-3.6c0-0.9,0.6-2,0.7-2.1C225.9,87.9,226.8,87.2,228,87.1z"/>
			<path fill="#ABA4A4" d="M244.1,87.1c2.301-0.3,4.101,1.4,4.101,3.6c0,2.3-2,4-4.4,3.6c-1.399-0.2-3.1-1.7-3.1-3.6
				c0-0.7,0.5-1.8,0.7-2.1C242,87.9,242.9,87.2,244.1,87.1z"/>
			<path d="M228.3,99.6c0.8-0.2,1.2,0.4,1.3,0.5c1.601,1.2,3.801,1.7,6.9,1.7c3.2,0,5.2-0.5,6.8-1.7c-0.1,0.1,0.5-0.7,1.2-0.6
				c0.4,0,0.8,0.2,0.9,0.8c0.1,0.8-0.9,1.5-1.4,1.8c-2.9,2-9,2.4-13.1,1c-1.101-0.399-3.601-1.5-3.4-2.8
				C227.6,100,227.9,99.7,228.3,99.6z"/>
			<path fill="#FFFFFF" d="M226.5,108.2c5.5,1.8,14.2,1.8,19.8,0c1.4,11.7-0.399,23.8-7.3,28.8c-1.5-0.3-3.5,0.4-5.1,0
				c-0.801-0.2-1.9-1.4-2.5-2.2c-4.601-5.6-6.4-16.7-4.9-26.399C226.5,108.3,226.4,108.2,226.5,108.2z"/>
			<path fill="#FFFFFF" d="M224.1,110.1c-0.3,5.301-0.1,11.4,1.101,15.801c-2.3-1.301-4.2-3.801-4.4-7.2
				C220.4,115,221.8,111.9,224.1,110.1z"/>
			<path fill="#FFFFFF" d="M248.6,110.1c0.101,0,0.101,0.101,0.2,0.101c2.101,1.8,3.5,4.6,3.3,8.5c-0.199,3.399-2.1,6.1-4.5,7.3
				C248.7,121.5,249.1,115.6,248.6,110.1z"/>
			<path fill="#FFFFFF" d="M230.5,137c-2.9,0-5.8,0-8.6,0c0.1-2.4,2.3-3.6,4.399-3.7c0.601,0,1.2,0,1.601,0.2c0.5,0.3,1,1.3,1.3,1.8
				C229.6,136,230.1,136.5,230.5,137z"/>
			<path fill="#FFFFFF" d="M251,137c-2.9,0-5.8,0-8.6,0c-0.101-0.2,0.3-0.5,0.5-0.8c0.6-0.8,1.399-1.8,1.899-2.7
				C247.9,132.9,250.8,134,251,137z"/>
		</g>
	</g>
	<text transform="matrix(1 0 0 1 -420.7627 -225.5449)" fill="#FFFFFF" font-family="'Futura-Medium'" font-size="25">Game of Thrones </text>
	<text transform="matrix(1 0 0 1 -420.7627 -195.5449)" fill="#FFFFFF" font-family="'Futura-Medium'" font-size="25">Companion</text>
	<text transform="matrix(1 0 0 1 -420.7627 -159.5449)" fill="#FFFFFF" font-family="'Futura-Medium'" font-size="18">A character map for a pretty confusing</text>
	<text transform="matrix(1 0 0 1 -420.7627 -137.9443)" fill="#FFFFFF" font-family="'Futura-Medium'" font-size="18">show. </text>
	<text transform="matrix(1 0 0 1 -4.6875 -215.5449)" fill="#FFFFFF" font-family="'Futura-Medium'" font-size="25">Ocoee Mobile </text>
	<text transform="matrix(1 0 0 1 -4.6875 -185.5449)" fill="#FFFFFF" font-family="'Futura-Medium'" font-size="25">Showcase</text>
	<text transform="matrix(1 0 0 1 -4.6875 -142.3447)" fill="#FFFFFF" font-family="'Futura-Medium'" font-size="18">A character map for a pretty confusing</text>
	<text transform="matrix(1 0 0 1 -4.6875 -120.7441)" fill="#FFFFFF" font-family="'Futura-Medium'" font-size="18">show. </text>
</g>
<g id="window" display="none">
	<g display="inline">
		
			<image overflow="visible" enable-background="new    " width="1261" height="67" xlink:href="5FF32DEB7D84E49D.png"  transform="matrix(1 0 0 1 -479.334 -556.1436)">
		</image>
		<g>
			<rect x="-449.3" y="-520.5" fill="#ECB90C" width="1200" height="5.5"/>
		</g>
	</g>
</g>
</svg>
