<?xml version="1.0" encoding="utf-8"?>
<!-- Generator: Adobe Illustrator 16.0.0, SVG Export Plug-In . SVG Version: 6.00 Build 0)  -->
<!DOCTYPE svg PUBLIC "-//W3C//DTD SVG 1.1//EN" "http://www.w3.org/Graphics/SVG/1.1/DTD/svg11.dtd">
<svg version="1.1" id="Layer_1" xmlns="http://www.w3.org/2000/svg" xmlns:xlink="http://www.w3.org/1999/xlink" x="0px" y="0px"
	 width="300px" height="200px" viewBox="0 0 300 200" enable-background="new 0 0 300 200" xml:space="preserve">
<g id="cityscape">
	
		<image overflow="visible" enable-background="new    " width="1233" height="557" xlink:href="13BBCAA780BEE3FC.png"  transform="matrix(0.9732 0 0 0.9732 -848.4609 -583.334)">
	</image>
</g>
<g id="markers">
	<g>
		<g>
			
				<image overflow="visible" opacity="0.75" enable-background="new    " width="111" height="50" xlink:href="13BBCAA780BEE3FD.png"  transform="matrix(1 0 0 1 41.5391 -368.334)">
			</image>
			<g>
				<rect x="57.2" y="-352.9" fill="#362B06" width="79.6" height="18.7"/>
			</g>
		</g>
		<path fill="#352B09" d="M135.6-352.9c5.5,0,10,4.2,10,9.4s-4.5,9.4-10,9.4"/>
	</g>
	<g>
		
			<image overflow="visible" opacity="0.75" enable-background="new    " width="131" height="154" xlink:href="13BBCAA780BEE3FB.png"  transform="matrix(1 0 0 1 -23.4609 -420.334)">
		</image>
		<g>
			<path fill="#6C560B" d="M92.3-354.7c0,27.7-50.1,72.6-50.1,72.6S-7.9-327-7.9-354.7c0-27.7,22.4-50.1,50.1-50.1
				C69.9-404.8,92.3-382.4,92.3-354.7z"/>
		</g>
	</g>
	<g>
		<g>
			
				<image overflow="visible" opacity="0.75" enable-background="new    " width="176" height="54" xlink:href="13BBCAA780BEE404.png"  transform="matrix(1 0 0 1 -428.4609 -363.334)">
			</image>
			<g>
				<rect x="-413.4" y="-348" fill="#765D06" width="145" height="23"/>
			</g>
		</g>
		<path fill="#765D06" d="M-269.2-348.2c6.6,0,12,5.1,12,11.3c0,6.2-5.4,11.3-12,11.3"/>
	</g>
	<g>
		<g>
			
				<image overflow="visible" opacity="0.75" enable-background="new    " width="146" height="52" xlink:href="13BBCAA780BEE407.png"  transform="matrix(1 0 0 1 -193.4609 -489.334)">
			</image>
			<g>
				<rect x="-178.3" y="-473.7" fill="#125B56" width="115" height="20.7"/>
			</g>
		</g>
		<path fill="#155C56" d="M-64.3-473.4c6,0,10.8,4.6,10.8,10.2c0,5.6-4.9,10.2-10.8,10.2"/>
	</g>
	<g>
		
			<image overflow="visible" opacity="0.75" enable-background="new    " width="142" height="166" xlink:href="13BBCAA780BEE405.png"  transform="matrix(1 0 0 1 -261.4609 -546.334)">
		</image>
		<g>
			<path fill="#009F96" d="M-135.2-475.8c0,30.6-55.5,80.4-55.5,80.4s-55.5-49.7-55.5-80.4c0-30.6,24.8-55.5,55.5-55.5
				C-160.1-531.3-135.2-506.4-135.2-475.8z"/>
		</g>
	</g>
	<g>
		
			<image overflow="visible" opacity="0.75" enable-background="new    " width="154" height="182" xlink:href="13BBCAA780BEE40B.png"  transform="matrix(1 0 0 1 -514.4609 -427.334)">
		</image>
		<g>
			<path fill="#ECB90C" d="M-376.1-350.3c0,33.9-61.5,89-61.5,89s-61.5-55.1-61.5-89c0-33.9,27.5-61.5,61.5-61.5
				S-376.1-384.3-376.1-350.3z"/>
		</g>
	</g>
	<g>
		
			<image overflow="visible" opacity="0.75" enable-background="new    " width="60" height="44" xlink:href="13BBCAA780BEE40C.png"  transform="matrix(1 0 0 1 84.5391 -365.334)">
		</image>
		<g>
			<text transform="matrix(1 0 0 1 100.2676 -340.1719)" fill="#F2F2F2" font-family="'Futura-Medium'" font-size="11.239">Work</text>
		</g>
	</g>
	<g>
		
			<image overflow="visible" opacity="0.75" enable-background="new    " width="125" height="47" xlink:href="13BBCAA780BEE40F.png"  transform="matrix(1 0 0 1 -385.4609 -360.334)">
		</image>
		<g>
			<text transform="matrix(1 0 0 1 -369.7559 -332.5322)" fill="#F2F2F2" font-family="'Futura-Medium'" font-size="13.7857">Recent Projects</text>
		</g>
	</g>
	<g>
		
			<image overflow="visible" opacity="0.75" enable-background="new    " width="86" height="46" xlink:href="DA244A359B96F3CB.png"  transform="matrix(1 0 0 1 -141.4609 -486.334)">
		</image>
		<g>
			<text transform="matrix(1 0 0 1 -126.3945 -459.6641)" fill="#F2F2F2" font-family="'Futura-Medium'" font-size="12.4475">Education</text>
		</g>
	</g>
</g>
<g id="icons">
	<g>
		<rect x="-218.4" y="-489.9" fill="#FFFFFF" width="20.4" height="7.7"/>
		<rect x="-218.7" y="-480.2" fill="#FFFFFF" width="57.3" height="25.2"/>
		<rect x="-196.3" y="-499" fill="#FFFFFF" width="12.3" height="16.8"/>
		<path fill="#FFFFFF" d="M-196.1-501c0-4.5,2.7-8.2,6-8.2c3.3,0,6,3.7,6,8.2"/>
		<line fill="none" stroke="#009F96" stroke-width="3" x1="-207.9" y1="-478.2" x2="-207.9" y2="-458.5"/>
		<line fill="none" stroke="#009F96" stroke-width="3" x1="-197.9" y1="-478.2" x2="-197.9" y2="-458.5"/>
		<line fill="none" stroke="#009F96" stroke-width="3" x1="-177.8" y1="-477.8" x2="-177.8" y2="-458.2"/>
		<line fill="none" stroke="#009F96" stroke-width="3" x1="-167.7" y1="-477.8" x2="-167.7" y2="-458.2"/>
		<line fill="none" stroke="#009F96" stroke-width="3" x1="-187.8" y1="-477.8" x2="-187.8" y2="-458.2"/>
		<line fill="none" stroke="#009F96" stroke-width="3" x1="-187.8" y1="-497.7" x2="-187.8" y2="-482.6"/>
	</g>
	<g>
		<path fill="#FFFFFF" d="M-421.2-329.8c0,0-18.1,7.6-36.3,0v-47.4c15.1,5,36.3,0,36.3,0V-329.8z"/>
		<path fill="none" stroke="#FFFFFF" stroke-width="6" d="M-428.2-363.3c0,0,23.5-10,19.2,7.7c-2,8.2-11.4,12.3-18.7,6.7"/>
		<path fill="none" stroke="#FFFFFF" d="M-457.5-377.2c0,0,16.1-5.5,36.3,0"/>
	</g>
	<g>
		<path fill="#FFFFFF" d="M32.5-335c-1.9,0-3.4-1.4-3.4-3.2v-42.7c0-1.8,1.5-3.2,3.4-3.2H52c1.9,0,3.4,1.4,3.4,3.2v42.7
			c0,1.8-1.5,3.2-3.4,3.2H32.5z"/>
		<rect x="30.4" y="-380.2" fill="#6C560B" width="23.6" height="37.1"/>
		<ellipse fill="#6C560B" cx="42.2" cy="-338.9" rx="1.9" ry="1.6"/>
		<circle fill="#FFFFFF" cx="33.1" cy="-376.7" r="1.5"/>
		<circle fill="#FFFFFF" cx="33.1" cy="-372.7" r="1.5"/>
		<line fill="none" stroke="#FFFFFF" x1="35.6" y1="-376" x2="44.3" y2="-376"/>
		<line fill="none" stroke="#FFFFFF" x1="35.6" y1="-372.3" x2="44.3" y2="-372.3"/>
	</g>
	<g>
		
			<image overflow="visible" opacity="0.75" enable-background="new    " width="157" height="157" xlink:href="DA244A359B96F3C9.png"  transform="matrix(1 0 0 1 -686.4604 -578.334)">
		</image>
		<g>
			<g>
				
					<circle opacity="0.7" fill="#919191" stroke="#FFFFFF" stroke-width="4" enable-background="new    " cx="-615.4" cy="-507.3" r="61.1"/>
				<text transform="matrix(1 0 0 1 -660.04 -529.6113)" fill="#FFFFFF" font-family="'Futura-Medium'" font-size="19.5379">pedro</text>
				<text transform="matrix(1 0 0 1 -660.04 -506.2119)" fill="#FFFFFF" font-family="'Futura-Medium'" font-size="19.5379">silva</text>
			</g>
		</g>
	</g>
</g>
<g id="currentProjects">
	<rect x="-447.5" y="-35" opacity="0.9" fill="#B18B09" enable-background="new    " width="400" height="400"/>
	<rect x="-847.5" y="-35" opacity="0.9" fill="#ECB90C" enable-background="new    " width="400" height="400"/>
	<rect x="-47.5" y="-35" opacity="0.9" fill="#FFFFFF" enable-background="new    " width="400" height="400"/>
	<rect x="-49.5" y="365" opacity="0.9" fill="#594605" enable-background="new    " width="400" height="400"/>
	<rect x="-848.5" y="364" opacity="0.9" fill="#B18B09" enable-background="new    " width="400" height="400"/>
	<rect x="-448.5" y="365" opacity="0.9" fill="#765D06" enable-background="new    " width="400" height="400"/>
	<g>
		<path fill="#CCCCCC" d="M-549.6,140.7c0,6.1-4.9,11-11,11h-151.1c-6.1,0-11-4.9-11-11V49c0-6.1,4.9-11,11-11h151.1
			c6.1,0,11,4.9,11,11V140.7z"/>
		<rect x="-708.4" y="56.7" fill="#E5E5E5" width="144.5" height="76.3"/>
		<path fill="#919191" d="M-741.9,170c-3,0-5.5-1.9-5.5-4.1V90c0-2.3,2.5-4.1,5.5-4.1h111.2c3,0,5.5,1.9,5.5,4.1v75.9
			c0,2.3-2.5,4.1-5.5,4.1H-741.9z"/>
		<rect x="-733.5" y="93" fill="#FFFFFF" width="100.3" height="69.9"/>
		<circle fill="#FFFFFF" cx="-740.5" cy="127.9" r="2.8"/>
		<path fill="#BDBDBD" d="M-697.6,95.5c17.9,0,32.4,14.5,32.4,32.4c0,17.899-14.5,32.399-32.4,32.399"/>
		<rect x="-662.4" y="95.2" fill="#D3D3D3" width="26" height="4.8"/>
		<rect x="-662.4" y="108.3" fill="#D3D3D3" width="26" height="32.101"/>
		<rect x="-662.4" y="101.6" fill="#D3D3D3" width="26" height="4.801"/>
		<path fill="#D3D3D3" d="M-697.5,160.4c-17.9,0-32.4-14.5-32.4-32.4s14.5-32.4,32.4-32.4"/>
		<circle fill="#FFFFFF" cx="-697.6" cy="127.9" r="4.7"/>
		<circle fill="#FFFFFF" cx="-685.1" cy="106" r="2.8"/>
		<circle fill="#FFFFFF" cx="-684.9" cy="123.9" r="2.8"/>
		<circle fill="#FFFFFF" cx="-704.5" cy="146.8" r="2.8"/>
		<circle fill="#FFFFFF" cx="-714.7" cy="140.5" r="2.8"/>
		<circle fill="#FFFFFF" cx="-710.6" cy="120.6" r="2.8"/>
		<circle fill="#FFFFFF" cx="-686.8" cy="140" r="2.8"/>
		<circle fill="#FFFFFF" cx="-705.4" cy="107.6" r="2.8"/>
		<line fill="none" stroke="#FFFFFF" x1="-701.5" y1="126.4" x2="-709.7" y2="121.4"/>
		<line fill="none" stroke="#FFFFFF" x1="-699" y1="124.5" x2="-704.9" y2="108.6"/>
		<line fill="none" stroke="#FFFFFF" x1="-695.1" y1="124.3" x2="-685.7" y2="107.3"/>
		<line fill="none" stroke="#FFFFFF" x1="-694" y1="127" x2="-687" y2="124.7"/>
		<line fill="none" stroke="#FFFFFF" x1="-694.3" y1="130.6" x2="-687.4" y2="138.8"/>
		<line fill="none" stroke="#FFFFFF" x1="-698.6" y1="131.4" x2="-703.7" y2="145.6"/>
		<line fill="none" stroke="#FFFFFF" x1="-700.7" y1="130" x2="-714.7" y2="140.5"/>
	</g>
	<g>
		<rect x="-313.3" y="147.2" fill="#BDBDBD" width="42" height="21.7"/>
		<polygon fill="#BDBDBD" points="-291.8,145.8 -281.6,126.9 -271.4,145.8 		"/>
		<line fill="none" stroke="#BDBDBD" stroke-width="3" x1="-281.7" y1="127.9" x2="-302.2" y2="127.9"/>
		<path fill="#D3D3D3" d="M-213.5,67.7c0,19.6-35.4,52.1-35.4,52.1s-35.4-32.5-35.4-52.1c0-19.6,15.9-35.4,35.4-35.4
			S-213.5,48.1-213.5,67.7z"/>
		<circle fill="#BDBDBD" cx="-248.9" cy="67" r="21.8"/>
		<rect x="-269.4" y="152" fill="#BDBDBD" width="42" height="21.7"/>
		<polygon fill="#BDBDBD" points="-247.9,150.6 -237.7,131.8 -227.5,150.6 		"/>
		<line fill="none" stroke="#BDBDBD" stroke-width="3" x1="-237.9" y1="132.7" x2="-258.3" y2="132.7"/>
		<rect x="-225.6" y="147.2" fill="#BDBDBD" width="42" height="21.7"/>
		<polygon fill="#BDBDBD" points="-204,145.8 -193.8,126.9 -183.6,145.8 		"/>
		<line fill="none" stroke="#BDBDBD" stroke-width="3" x1="-194" y1="127.9" x2="-214.5" y2="127.9"/>
	</g>
	<g>
		<g>
			<rect x="195.7" y="53.8" fill="#CCECEA" width="93.5" height="100.7"/>
			<rect x="202.3" y="87.2" fill="#BFBFBF" width="23.9" height="61.2"/>
			<rect x="202.3" y="74.1" fill="#BFBFBF" width="23.9" height="10.6"/>
			<rect x="230.2" y="103.3" fill="#BFBFBF" width="23.899" height="45.101"/>
			<rect x="258" y="103.3" fill="#BFBFBF" width="23.9" height="45.101"/>
			<rect x="230.2" y="73.8" fill="#BFBFAC" width="51.8" height="26.2"/>
			<polyline fill="#009F96" points="278.7,53.8 289.2,53.8 289.2,64.2 			"/>
			<path fill="#BFBFBF" d="M289.2,64c0,0-4.7-1.7-10.5,0c1.899-5.8,0-10.5,0-10.5"/>
		</g>
		<g>
			<path fill="#8E8E8E" d="M151,135.1c0,4.801-3.9,8.7-8.7,8.7H22.6c-4.8,0-8.7-3.899-8.7-8.7V62.5c0-4.8,3.9-8.7,8.7-8.7h119.6
				c4.8,0,8.7,3.9,8.7,8.7v72.6H151z"/>
			<rect x="25.2" y="68.6" fill="#CCECEA" width="114.4" height="60.4"/>
			<path fill="#6D6D6D" d="M94.5,154.4H70.3l4.2-10.601c3.3-2.2,12.5-2.2,15.7,0L94.5,154.4z"/>
			<rect x="109.7" y="79.9" fill="#867878" width="25" height="42.4"/>
			<rect x="29.6" y="72.4" fill="#867878" width="25" height="49.9"/>
			<rect x="56.3" y="109.5" fill="#BFBFBF" width="25" height="12.8"/>
			<rect x="83" y="109.5" fill="#BFBFBF" width="25" height="12.8"/>
			<line fill="none" stroke="#8C8C8C" stroke-width="3" x1="58.6" y1="82.3" x2="82.1" y2="82.3"/>
			<line fill="none" stroke="#8C8C8C" stroke-width="3" x1="58.6" y1="88.1" x2="102.5" y2="88.1"/>
			<line fill="none" stroke="#8C8C8C" stroke-width="3" x1="58.6" y1="94.5" x2="97.8" y2="94.5"/>
		</g>
		<text transform="matrix(1 0 0 1 168.4004 105.8164)" font-family="'Futura-Medium'" font-size="14.517">+</text>
	</g>
	<g>
		<g>
			<path fill="#919191" d="M-597.9,663.8h-93.8V524.3c16.6-19.5,79.1-21.5,93.8,0V663.8z"/>
			<rect x="-591.9" y="504.1" fill="#6D6D6D" width="73" height="132.4"/>
			<rect x="-558.3" y="634.3" fill="#919191" width="5.7" height="21.8"/>
			<path fill="#6D6D6D" d="M-543.1,663.9h-24.8l4.3-10.9c3.3-2.3,12.7-2.3,16.1,0L-543.1,663.9z"/>
			<g>
				<rect x="-584.5" y="516.2" fill="#BDBDBD" width="10.8" height="17.1"/>
				<rect x="-568.7" y="516.2" fill="#BDBDBD" width="10.8" height="17.1"/>
				<rect x="-552.9" y="516.2" fill="#BDBDBD" width="10.8" height="17.1"/>
				<rect x="-537.2" y="516.2" fill="#BDBDBD" width="10.8" height="17.1"/>
			</g>
			<g>
				<rect x="-584.5" y="541.9" fill="#BDBDBD" width="10.8" height="17.1"/>
				<rect x="-568.7" y="541.9" fill="#BDBDBD" width="10.8" height="17.1"/>
				<rect x="-552.9" y="541.9" fill="#BDBDBD" width="10.8" height="17.1"/>
				<rect x="-537.2" y="541.9" fill="#BDBDBD" width="10.8" height="17.1"/>
			</g>
			<g>
				<rect x="-584.5" y="567.6" fill="#BDBDBD" width="10.8" height="17.101"/>
				<rect x="-568.7" y="567.6" fill="#BDBDBD" width="10.8" height="17.101"/>
				<rect x="-552.9" y="567.6" fill="#BDBDBD" width="10.8" height="17.101"/>
				<rect x="-537.2" y="567.6" fill="#BDBDBD" width="10.8" height="17.101"/>
			</g>
			<g>
				<rect x="-584.5" y="593.4" fill="#BDBDBD" width="10.8" height="17.1"/>
				<rect x="-568.7" y="593.4" fill="#BDBDBD" width="10.8" height="17.1"/>
				<rect x="-552.9" y="593.4" fill="#BDBDBD" width="10.8" height="17.1"/>
				<rect x="-537.2" y="593.4" fill="#BDBDBD" width="10.8" height="17.1"/>
			</g>
			<line fill="none" stroke="#FFFFFF" stroke-width="4" x1="-513" y1="621.5" x2="-595.2" y2="621.5"/>
			<rect x="-673.3" y="542.1" fill="#404040" width="52.5" height="49.601"/>
			<polygon fill="#BFBFBF" points="-621,591.7 -673.3,591.7 -667.3,545.1 -627,545.1 			"/>
			<rect x="-613.9" y="574.4" width="3.6" height="13.399"/>
		</g>
		<g>
			<path fill="#919191" d="M-777.8,628.5c-3.4,0-6.2-2.6-6.2-5.8v-77.4c0-3.2,2.8-5.8,6.2-5.8h35.3c3.4,0,6.2,2.6,6.2,5.8v77.4
				c0,3.2-2.8,5.8-6.2,5.8H-777.8z"/>
			<rect x="-781.4" y="546.7" fill="#D9D9D9" width="42.6" height="67.3"/>
			<ellipse fill="#BFBFBF" cx="-760.1" cy="621.4" rx="3.4" ry="2.9"/>
			<circle fill="#FFFFFF" cx="-776.6" cy="553" r="2.7"/>
			<circle fill="#FFFFFF" cx="-776.6" cy="560.3" r="2.7"/>
			<line fill="none" stroke="#FFFFFF" x1="-772.1" y1="554.3" x2="-756.3" y2="554.3"/>
			<line fill="none" stroke="#FFFFFF" x1="-772.1" y1="561" x2="-756.3" y2="561"/>
		</g>
		<text transform="matrix(1 0 0 1 -718.9805 588.4141)" font-family="'Futura-Medium'" font-size="14.8403">+</text>
	</g>
	<g>
		<path fill="#CCCCCC" d="M-239.3,622c0,9-6.9,16.3-15.4,16.3h-115.2c-8.5,0-15.4-7.3-15.4-16.3v-71.6c0-9-0.1-16.301,8.4-16.301
			h129.2c8.5,0,8.4,7.301,8.4,16.301V622z"/>
		<circle opacity="0.33" fill="#CCCCCC" enable-background="new    " cx="-162.6" cy="580.7" r="51"/>
		<g>
			<rect x="-376.2" y="533.2" fill="#FFFFFF" width="15.6" height="95.1"/>
			<rect x="-357.5" y="533.2" fill="#FFFFFF" width="15.6" height="95.1"/>
			<rect x="-338.9" y="533.2" fill="#FFFFFF" width="15.6" height="95.1"/>
			<rect x="-320.2" y="533.2" fill="#FFFFFF" width="15.6" height="95.1"/>
			<rect x="-301.6" y="533.2" fill="#FFFFFF" width="15.6" height="95.1"/>
			<rect x="-282.9" y="533.2" fill="#FFFFFF" width="15.6" height="95.1"/>
			<rect x="-264.2" y="533.2" fill="#FFFFFF" width="15.6" height="95.1"/>
			<rect x="-275.7" y="533.2" fill="#404040" width="15.6" height="57.5"/>
			<rect x="-294.3" y="533.2" fill="#404040" width="15.6" height="57.5"/>
			<rect x="-313" y="533.2" fill="#404040" width="15.6" height="57.5"/>
			<rect x="-350.3" y="533.2" fill="#404040" width="15.6" height="57.5"/>
			<rect x="-368.9" y="533.2" fill="#404040" width="15.6" height="57.5"/>
		</g>
		<text transform="matrix(1 0 0 1 -230.6387 585.1689)" font-family="'Futura-Medium'" font-size="15.0433">+</text>
		<g>
			<path d="M-144.7,543.5c0.1,0,0.2,0,0.4,0c6.7,0.3,6.2,10.7-0.8,10c-2.5-0.3-4.2-2.1-4.4-4.9c-2.8-0.699-5.7-1.3-8.5-2
				c-1.1,3.2-2.1,6.7-3.2,9.9c6.2,0.3,11.1,1.9,15,4.4c0.7-0.301,1-0.7,1.6-1c4-1.9,8.3,1.199,8.6,4.8c0,0.5,0,1,0,1.5
				c-0.4,2.2-1.5,3.6-3.1,4.6c0.7,8.601-5.8,13-11.8,15.4c3.3,1.899,5.8,5.2,5.8,10.2c0,5.6-3,9.5-7.3,10.8
				c-0.4,0.899-0.7,1.899-1.1,2.8c3.8,0,6.8,1.9,7.2,4.9c0.1,1.1,0,2.3-0.6,2.699c-0.6,0.4-2.6,0.2-3.8,0.2c-8.2,0-16.2,0-24.4,0
				c-1.3,0-3.3,0.2-3.8-0.2c-0.6-0.399-0.7-1.6-0.6-2.6c0.3-3.2,3.5-5,7-5c-0.1-0.8-0.8-1.8-0.9-2.8c-4.3-1.2-7.3-5.5-7.3-10.8
				c0-4.601,2.3-8.301,5.8-10c-3.1-1.4-5.8-2.801-7.9-5c-2.1-2.101-4.1-5-4.1-8.9c0-0.5,0.3-1.2,0.1-1.7c-0.1-0.3-0.7-0.5-1-0.899
				c-0.9-0.9-1.5-2.2-1.8-3.601c0-0.5,0-1,0-1.5c0.4-2.2,1.6-3.899,3.6-4.8c2.1-1,4.9-0.5,6.6,0.9c4.1-2.7,9.4-4.2,15.9-4.4
				c0.9-3,1.9-6.1,2.9-9.2c0.3-0.8,0.5-2.6,1.2-2.8c0.7-0.2,1.8,0.2,2.5,0.4c2.6,0.6,5.1,1.199,7.5,1.699
				C-148.3,544.9-147,543.8-144.7,543.5z M-147.5,548.2c-0.4,3.7,4.8,4.399,5.8,1.2c0.7-2.4-1.4-4.101-3.4-3.7
				C-146.4,546-147.3,547-147.5,548.2z M-172.5,560c-2.3,0.7-4.2,1.7-6,2.9c-3.1,2.1-7.2,5.899-5.8,11.6c1.1,4.5,4.9,7.2,8.7,9.1
				c4.3,2,9.6,2.9,15,2.7s10-1.899,13.6-4.2c3.3-2.199,7.1-6,5.9-11.5c-1-4.8-5-7.5-8.6-9.199c-4.1-1.9-9.1-3.101-15.2-2.7
				C-167.8,558.8-170.3,559.3-172.5,560z M-185.9,568.5c0.9-2.8,2.8-4.6,4.8-6.4C-185.3,559.2-189.7,565.8-185.9,568.5z
				 M-139.1,562.6c-1.2-1.199-3.7-1.6-5.2-0.399c2.1,1.6,3.8,3.7,4.9,6.399C-137.6,567.4-137.5,564.2-139.1,562.6z M-172.7,587.3
				c-1.5,9.7,0.4,20.8,4.9,26.4c0.6,0.7,1.7,2,2.5,2.2c1.6,0.399,3.5-0.301,5.1,0c6.9-5,8.7-17.101,7.3-28.801
				c-5.5,1.801-14.2,1.801-19.8,0C-172.7,587-172.7,587.1-172.7,587.3z M-178.4,597.6c0.2,3.301,2.1,5.9,4.4,7.2
				c-1.2-4.399-1.4-10.5-1.1-15.8C-177.3,590.8-178.7,593.8-178.4,597.6z M-151.5,604.8c2.4-1.2,4.3-3.899,4.5-7.3
				c0.3-3.9-1.2-6.7-3.3-8.5c-0.1,0-0.1-0.1-0.2-0.1C-150,594.4-150.4,600.3-151.5,604.8z M-170,614.1c-0.3-0.5-0.8-1.6-1.3-1.8
				c-0.4-0.2-1-0.2-1.6-0.2c-2.1,0.101-4.4,1.301-4.4,3.7c2.9,0,5.8,0,8.6,0C-169,615.3-169.5,614.8-170,614.1z M-154.4,612.3
				c-0.5,0.9-1.3,1.9-1.9,2.7c-0.2,0.3-0.6,0.6-0.5,0.8c2.9,0,5.8,0,8.6,0C-148.3,612.8-151.3,611.7-154.4,612.3z"/>
			<path fill="#FFFFFF" d="M-145.1,545.7c2-0.4,4.2,1.3,3.4,3.7c-1,3.199-6.2,2.5-5.8-1.2C-147.3,547-146.4,546-145.1,545.7z"/>
			<path fill="#FFFFFF" d="M-164.9,558.6c6.1-0.399,11,0.801,15.2,2.7c3.6,1.7,7.5,4.4,8.6,9.2c1.2,5.5-2.6,9.4-5.9,11.5
				c-3.6,2.4-8.2,4-13.6,4.2c-5.5,0.2-10.8-0.7-15-2.7c-3.9-1.8-7.7-4.6-8.7-9.1c-1.3-5.7,2.7-9.5,5.8-11.601
				c1.8-1.2,3.7-2.2,6-2.899C-170.3,559.3-167.8,558.8-164.9,558.6z M-173.8,567.4c-0.1,0.1-0.7,1.199-0.7,2.1c0,1.8,1.5,3.4,3,3.6
				c2,0.301,4.4-1.1,4.4-3.699c0-0.7-0.6-2-0.9-2.4c-0.5-0.6-1.8-1.3-3.2-1.2C-172.3,566.1-173.3,566.7-173.8,567.4z M-157.6,567.4
				c-0.2,0.3-0.7,1.399-0.7,2.1c0,1.9,1.7,3.4,3.1,3.6c2.4,0.4,4.4-1.399,4.4-3.6s-1.9-3.9-4.1-3.6
				C-156.2,566.1-157.2,566.7-157.6,567.4z M-171.6,579.1c-0.2,1.4,2.3,2.5,3.4,2.801c4.1,1.399,10.2,0.899,13.1-1
				c0.5-0.301,1.5-1,1.4-1.801c-0.1-0.6-0.5-0.8-0.9-0.8c-0.7-0.1-1.4,0.7-1.2,0.601c-1.6,1.3-3.7,1.699-6.8,1.699
				s-5.3-0.5-6.9-1.699c-0.1-0.101-0.5-0.7-1.3-0.5C-171.2,578.5-171.5,578.8-171.6,579.1z"/>
			<path fill="#FFFFFF" d="M-181.1,562.1c-2,1.7-3.8,3.601-4.8,6.4C-189.7,565.8-185.3,559.2-181.1,562.1z"/>
			<path fill="#FFFFFF" d="M-139.5,568.7c-1.1-2.7-2.7-4.8-4.9-6.4c1.5-1.3,4-0.899,5.2,0.4C-137.5,564.2-137.6,567.4-139.5,568.7z"
				/>
			<path fill="#ABA4A4" d="M-171.1,565.9c1.4-0.2,2.7,0.6,3.2,1.199c0.4,0.4,0.9,1.7,0.9,2.4c0.1,2.7-2.4,4-4.4,3.7
				c-1.5-0.2-3.1-1.8-3-3.601c0-0.899,0.6-2,0.7-2.1C-173.3,566.7-172.3,566.1-171.1,565.9z"/>
			<path fill="#ABA4A4" d="M-155,565.9c2.3-0.301,4.1,1.399,4.1,3.6c0,2.3-2,4-4.4,3.6c-1.4-0.199-3.1-1.699-3.1-3.6
				c0-0.7,0.5-1.8,0.7-2.1C-157.2,566.7-156.2,566.1-155,565.9z"/>
			<path d="M-170.9,578.4c0.8-0.2,1.2,0.399,1.3,0.5c1.6,1.199,3.8,1.699,6.9,1.699c3.2,0,5.2-0.5,6.8-1.699
				c-0.1,0.1,0.5-0.7,1.2-0.601c0.4,0,0.8,0.2,0.9,0.8c0.1,0.801-0.9,1.5-1.4,1.801c-2.9,2-9,2.399-13.1,1
				c-1.1-0.4-3.6-1.5-3.4-2.801C-171.5,578.8-171.2,578.5-170.9,578.4z"/>
			<path fill="#FFFFFF" d="M-172.6,587c5.5,1.8,14.2,1.8,19.8,0c1.4,11.7-0.4,23.8-7.3,28.8c-1.5-0.3-3.5,0.4-5.1,0
				c-0.8-0.2-1.9-1.399-2.5-2.2c-4.6-5.6-6.4-16.699-4.9-26.399C-172.7,587.1-172.7,587-172.6,587z"/>
			<path fill="#FFFFFF" d="M-175.1,588.9c-0.3,5.3-0.1,11.399,1.1,15.8c-2.3-1.3-4.2-3.8-4.4-7.2
				C-178.7,593.8-177.3,590.8-175.1,588.9z"/>
			<path fill="#FFFFFF" d="M-150.5,588.9c0.1,0,0.1,0.1,0.2,0.1c2.1,1.8,3.5,4.6,3.3,8.5c-0.2,3.4-2.1,6.1-4.5,7.3
				C-150.4,600.3-150,594.4-150.5,588.9z"/>
			<path fill="#FFFFFF" d="M-168.7,615.8c-2.9,0-5.8,0-8.6,0c0.1-2.399,2.3-3.6,4.4-3.7c0.6,0,1.2,0,1.6,0.2c0.5,0.3,1,1.3,1.3,1.8
				C-169.5,614.8-169,615.3-168.7,615.8z"/>
			<path fill="#FFFFFF" d="M-148.1,615.8c-2.9,0-5.8,0-8.6,0c-0.1-0.2,0.3-0.5,0.5-0.8c0.6-0.8,1.4-1.8,1.9-2.7
				C-151.3,611.7-148.3,612.8-148.1,615.8z"/>
		</g>
	</g>
	<text transform="matrix(1 0 0 1 -819.8896 253.2656)" fill="#FFFFFF" font-family="'Futura-Medium'" font-size="25">Game of Thrones </text>
	<text transform="matrix(1 0 0 1 -819.8896 283.2656)" fill="#FFFFFF" font-family="'Futura-Medium'" font-size="25">Companion</text>
	<text transform="matrix(1 0 0 1 -819.8896 319.2656)" fill="#FFFFFF" font-family="'Futura-Medium'" font-size="18">A character map for a pretty confusing</text>
	<text transform="matrix(1 0 0 1 -819.8896 340.8652)" fill="#FFFFFF" font-family="'Futura-Medium'" font-size="18">show. </text>
	<text transform="matrix(1 0 0 1 -403.8145 263.2656)" fill="#FFFFFF" font-family="'Futura-Medium'" font-size="25">Ocoee Mobile </text>
	<text transform="matrix(1 0 0 1 -403.8145 293.2656)" fill="#FFFFFF" font-family="'Futura-Medium'" font-size="25">Showcase</text>
	<text transform="matrix(1 0 0 1 -403.8145 336.4658)" fill="#FFFFFF" font-family="'Futura-Medium'" font-size="18">A character map for a pretty confusing</text>
	<text transform="matrix(1 0 0 1 -403.8145 358.0654)" fill="#FFFFFF" font-family="'Futura-Medium'" font-size="18">show. </text>
</g>
<g id="window">
	<g>
		
			<image overflow="visible" enable-background="new    " width="1261" height="67" xlink:href="DA244A359B96F3CF.png"  transform="matrix(1 0 0 1 -878.4609 -76.334)">
		</image>
		<g>
			<rect x="-848.5" y="-40.7" fill="#ECB90C" width="1200" height="5.5"/>
		</g>
	</g>
</g>
</svg>
